Necto Mono.ufo
<glyph name="exclam" format="2">
  <advance width="610"/>
  <unicode hex="0021"/>
  <outline>
    <contour>
      <point x="263" y="148" type="line"/>
      <point x="336" y="148" type="line"/>
      <point x="342" y="710" type="line"/>
      <point x="257" y="710" type="line"/>
    </contour>
    <contour>
      <point x="258" y="73" type="line"/>
      <point x="258" y="-10" type="line"/>
      <point x="341" y="-10" type="line"/>
      <point x="341" y="73" type="line"/>
    </contour>
  </outline>
</glyph>
<glyph name="numbersign" format="2">
  <advance width="610"/>
  <unicode hex="0023"/>
  <outline>
    <contour>
      <point x="217" y="640" type="line"/>
      <point x="97" y="0" type="line"/>
      <point x="183" y="0" type="line"/>
      <point x="303" y="640" type="line"/>
    </contour>
    <contour>
      <point x="447" y="640" type="line"/>
      <point x="327" y="0" type="line"/>
      <point x="413" y="0" type="line"/>
      <point x="533" y="640" type="line"/>
    </contour>
    <contour>
      <point x="81" y="459" type="line"/>
      <point x="81" y="382" type="line"/>
      <point x="568" y="382" type="line"/>
      <point x="568" y="459" type="line"/>
    </contour>
    <contour>
      <point x="49" y="248" type="line"/>
      <point x="49" y="171" type="line"/>
      <point x="536" y="171" type="line"/>
      <point x="536" y="248" type="line"/>
    </contour>
  </outline>
</glyph>
<glyph name="dollar" format="2">
  <advance width="610"/>
  <unicode hex="0024"/>
  <outline>
    <contour>
      <point x="271" y="800" type="line"/>
      <point x="273" y="-90" type="line"/>
      <point x="356" y="-90" type="line"/>
      <point x="353" y="800" type="line"/>
    </contour>
    <component base="S"/>
  </outline>
</glyph>
<glyph name="percent" format="2">
  <advance width="610"/>
  <unicode hex="0025"/>
  <outline>
    <contour>
      <point x="178" y="444" type="curve" smooth="yes"/>
      <point x="251" y="444"/>
      <point x="311" y="504"/>
      <point x="311" y="577" type="curve" smooth="yes"/>
      <point x="311" y="650"/>
      <point x="251" y="710"/>
      <point x="178" y="710" type="curve" smooth="yes"/>
      <point x="105" y="710"/>
      <point x="45" y="650"/>
      <point x="45" y="577" type="curve" smooth="yes"/>
      <point x="45" y="504"/>
      <point x="105" y="444"/>
    </contour>
    <contour>
      <point x="178" y="518" type="curve" smooth="yes"/>
      <point x="150" y="518"/>
      <point x="128" y="544"/>
      <point x="128" y="576" type="curve" smooth="yes"/>
      <point x="128" y="608"/>
      <point x="150" y="634"/>
      <point x="178" y="634" type="curve" smooth="yes"/>
      <point x="206" y="634"/>
      <point x="228" y="608"/>
      <point x="228" y="576" type="curve" smooth="yes"/>
      <point x="228" y="544"/>
      <point x="206" y="518"/>
    </contour>
    <contour>
      <point x="412" y="-10" type="curve" smooth="yes"/>
      <point x="485" y="-10"/>
      <point x="545" y="50"/>
      <point x="545" y="123" type="curve" smooth="yes"/>
      <point x="545" y="196"/>
      <point x="485" y="256"/>
      <point x="412" y="256" type="curve" smooth="yes"/>
      <point x="339" y="256"/>
      <point x="279" y="196"/>
      <point x="279" y="123" type="curve" smooth="yes"/>
      <point x="279" y="50"/>
      <point x="339" y="-10"/>
    </contour>
    <contour>
      <point x="412" y="65" type="curve" smooth="yes"/>
      <point x="384" y="65"/>
      <point x="362" y="91"/>
      <point x="362" y="123" type="curve" smooth="yes"/>
      <point x="362" y="155"/>
      <point x="384" y="181"/>
      <point x="412" y="181" type="curve" smooth="yes"/>
      <point x="440" y="181"/>
      <point x="462" y="155"/>
      <point x="462" y="123" type="curve" smooth="yes"/>
      <point x="462" y="91"/>
      <point x="440" y="65"/>
    </contour>
    <component base="fraction" yOffset="10"/>
  </outline>
</glyph>
<glyph name="ampersand" format="2">
  <advance width="610"/>
  <unicode hex="0026"/>
  <outline>
    <contour>
      <point x="468" y="271" type="line"/>
      <point x="448" y="177"/>
      <point x="385" y="67"/>
      <point x="261" y="67" type="curve" smooth="yes"/>
      <point x="192" y="67"/>
      <point x="129" y="101"/>
      <point x="129" y="190" type="curve" smooth="yes"/>
      <point x="129" y="271"/>
      <point x="192" y="293"/>
      <point x="275" y="348" type="curve" smooth="yes"/>
      <point x="366" y="408"/>
      <point x="430" y="462"/>
      <point x="430" y="558" type="curve" smooth="yes"/>
      <point x="430" y="623"/>
      <point x="395" y="710"/>
      <point x="272" y="710" type="curve" smooth="yes"/>
      <point x="151" y="710"/>
      <point x="112" y="623"/>
      <point x="112" y="558" type="curve" smooth="yes"/>
      <point x="112" y="468"/>
      <point x="180" y="401"/>
      <point x="204" y="370" type="curve" smooth="yes"/>
      <point x="495" y="0" type="line"/>
      <point x="605" y="0" type="line"/>
      <point x="270" y="419" type="line" smooth="yes"/>
      <point x="241" y="456"/>
      <point x="197" y="499"/>
      <point x="197" y="558" type="curve" smooth="yes"/>
      <point x="197" y="603"/>
      <point x="218" y="633"/>
      <point x="271" y="633" type="curve" smooth="yes"/>
      <point x="324" y="633"/>
      <point x="345" y="603"/>
      <point x="345" y="558" type="curve" smooth="yes"/>
      <point x="345" y="493"/>
      <point x="291" y="452"/>
      <point x="215" y="404" type="curve" smooth="yes"/>
      <point x="130" y="351"/>
      <point x="44" y="308"/>
      <point x="44" y="190" type="curve" smooth="yes"/>
      <point x="44" y="72"/>
      <point x="128" y="-10"/>
      <point x="259" y="-10" type="curve" smooth="yes"/>
      <point x="413" y="-10"/>
      <point x="503" y="90"/>
      <point x="545" y="234" type="curve"/>
    </contour>
  </outline>
</glyph>
<glyph name="quotesingle" format="2">
  <advance width="610"/>
  <unicode hex="0027"/>
  <outline>
    <contour>
      <point x="257" y="700" type="line"/>
      <point x="263" y="530" type="line"/>
      <point x="336" y="530" type="line"/>
      <point x="342" y="700" type="line"/>
    </contour>
  </outline>
</glyph>
<glyph name="parenright" format="2">
  <advance width="610"/>
  <unicode hex="0029"/>
  <guideline x="229" y="-164" angle="0"/>
  <guideline x="229" y="757" angle="0"/>
  <outline>
    <contour>
      <point x="271" y="-175" type="line"/>
      <point x="349" y="-79"/>
      <point x="409" y="120"/>
      <point x="409" y="298" type="curve" smooth="yes"/>
      <point x="409" y="476"/>
      <point x="349" y="675"/>
      <point x="271" y="771" type="curve"/>
      <point x="198" y="728" type="line"/>
      <point x="256" y="651"/>
      <point x="324" y="476"/>
      <point x="324" y="298" type="curve" smooth="yes"/>
      <point x="324" y="120"/>
      <point x="256" y="-55"/>
      <point x="198" y="-132" type="curve"/>
    </contour>
  </outline>
</glyph>
<glyph name="asterisk" format="2">
  <advance width="610"/>
  <unicode hex="002A"/>
  <outline>
    <contour>
      <point x="341" y="699" type="line"/>
      <point x="258" y="699" type="line"/>
      <point x="277" y="557" type="line"/>
      <point x="258" y="415" type="line"/>
      <point x="341" y="415" type="line"/>
      <point x="322" y="557" type="line"/>
    </contour>
    <contour>
      <point x="443" y="592" type="line"/>
      <point x="402" y="664" type="line"/>
      <point x="293" y="575" type="line"/>
      <point x="156" y="522" type="line"/>
      <point x="197" y="450" type="line"/>
      <point x="306" y="539" type="line"/>
    </contour>
    <contour>
      <point x="156" y="592" type="line"/>
      <point x="293" y="539" type="line"/>
      <point x="402" y="450" type="line"/>
      <point x="443" y="522" type="line"/>
      <point x="306" y="575" type="line"/>
      <point x="197" y="664" type="line"/>
    </contour>
  </outline>
</glyph>
<glyph name="plus" format="2">
  <advance width="610"/>
  <unicode hex="002B"/>
  <outline>
    <contour>
      <point x="530" y="316" type="line"/>
      <point x="81" y="316" type="line"/>
      <point x="81" y="239" type="line"/>
      <point x="530" y="239" type="line"/>
    </contour>
    <contour>
      <point x="348" y="52" type="line"/>
      <point x="348" y="502" type="line"/>
      <point x="263" y="502" type="line"/>
      <point x="263" y="52" type="line"/>
    </contour>
  </outline>
</glyph>
<glyph name="comma" format="2">
  <advance width="610"/>
  <unicode hex="002C"/>
  <outline>
    <contour>
      <point x="228" y="-132" type="curve"/>
      <point x="266" y="-184" type="line"/>
      <point x="354" y="-134"/>
      <point x="369" y="-26"/>
      <point x="360" y="80" type="curve"/>
      <point x="270" y="80" type="line"/>
      <point x="301" y="-4"/>
      <point x="293" y="-76"/>
    </contour>
    <contour>
      <point x="230" y="80" type="line"/>
      <point x="230" y="-8" type="line"/>
      <point x="313" y="-8" type="line"/>
      <point x="313" y="80" type="line"/>
    </contour>
  </outline>
</glyph>
<glyph name="hyphen" format="2">
  <advance width="610"/>
  <unicode hex="002D"/>
  <outline>
    <contour>
      <point x="89" y="316" type="line"/>
      <point x="89" y="239" type="line"/>
      <point x="521" y="239" type="line"/>
      <point x="521" y="316" type="line"/>
    </contour>
  </outline>
</glyph>
<glyph name="period" format="2">
  <advance width="610"/>
  <unicode hex="002E"/>
  <outline>
    <contour>
      <point x="252" y="90" type="line"/>
      <point x="252" y="-10" type="line"/>
      <point x="358" y="-10" type="line"/>
      <point x="358" y="90" type="line"/>
    </contour>
  </outline>
</glyph>
<glyph name="slash" format="2">
  <advance width="610"/>
  <unicode hex="002F"/>
  <outline>
    <contour>
      <point x="263" y="-70" type="line"/>
      <point x="424" y="787" type="line"/>
      <point x="338" y="787" type="line"/>
      <point x="178" y="-70" type="line"/>
    </contour>
  </outline>
</glyph>
<glyph name="zero" format="2">
  <advance width="610"/>
  <unicode hex="0030"/>
  <anchor x="305" y="350" name="center"/>
  <anchor x="312" y="10" name="ogonek"/>
  <anchor x="305" y="800" name="top"/>
  <anchor x="20" y="700" name="topleft"/>
  <anchor x="590" y="700" name="topright"/>
  <outline>
    <contour>
      <point x="305" y="710" type="curve" smooth="yes"/>
      <point x="120" y="710"/>
      <point x="60" y="529"/>
      <point x="60" y="350" type="curve" smooth="yes"/>
      <point x="60" y="171"/>
      <point x="120" y="-10"/>
      <point x="305" y="-10" type="curve" smooth="yes"/>
      <point x="490" y="-10"/>
      <point x="550" y="171"/>
      <point x="550" y="350" type="curve" smooth="yes"/>
      <point x="550" y="529"/>
      <point x="490" y="710"/>
    </contour>
    <contour>
      <point x="305" y="67" type="curve" smooth="yes"/>
      <point x="193" y="67"/>
      <point x="145" y="188"/>
      <point x="145" y="350" type="curve" smooth="yes"/>
      <point x="145" y="512"/>
      <point x="193" y="633"/>
      <point x="305" y="633" type="curve" smooth="yes"/>
      <point x="417" y="633"/>
      <point x="465" y="512"/>
      <point x="465" y="350" type="curve" smooth="yes"/>
      <point x="465" y="188"/>
      <point x="417" y="67"/>
    </contour>
    <contour>
      <point x="441" y="595" type="line"/>
      <point x="104" y="152" type="line"/>
      <point x="164" y="94" type="line"/>
      <point x="512" y="551" type="line"/>
    </contour>
  </outline>
</glyph>
<glyph name="two" format="2">
  <advance width="610"/>
  <unicode hex="0032"/>
  <guideline x="262" y="783" angle="90"/>
  <outline>
    <contour>
      <point x="174" y="7" type="line"/>
      <point x="154" y="149"/>
      <point x="226" y="215"/>
      <point x="315" y="255" type="curve" smooth="yes"/>
      <point x="426" y="305"/>
      <point x="526" y="364"/>
      <point x="526" y="498" type="curve" smooth="yes"/>
      <point x="526" y="668"/>
      <point x="388" y="710"/>
      <point x="307" y="710" type="curve" smooth="yes"/>
      <point x="203" y="710"/>
      <point x="103" y="652"/>
      <point x="68" y="528" type="curve"/>
      <point x="146" y="496" type="line"/>
      <point x="176" y="597"/>
      <point x="235" y="633"/>
      <point x="307" y="633" type="curve" smooth="yes"/>
      <point x="386" y="633"/>
      <point x="441" y="588"/>
      <point x="441" y="498" type="curve" smooth="yes"/>
      <point x="441" y="417"/>
      <point x="383" y="376"/>
      <point x="312" y="344" type="curve" smooth="yes"/>
      <point x="152" y="272"/>
      <point x="85" y="182"/>
      <point x="85" y="40" type="curve" smooth="yes"/>
      <point x="85" y="0" type="line"/>
      <point x="542" y="-1" type="line"/>
      <point x="542" y="76" type="line"/>
      <point x="161" y="75" type="line"/>
    </contour>
  </outline>
</glyph>
<glyph name="three" format="2">
  <advance width="610"/>
  <unicode hex="0033"/>
  <outline>
    <contour>
      <point x="323" y="428" type="curve"/>
      <point x="302" y="371" type="line"/>
      <point x="511" y="650" type="line"/>
      <point x="511" y="700" type="line"/>
      <point x="101" y="700" type="line"/>
      <point x="101" y="623" type="line"/>
      <point x="479" y="627" type="line"/>
      <point x="450" y="693" type="line"/>
      <point x="242" y="416" type="line"/>
      <point x="242" y="369" type="line"/>
      <point x="322" y="369"/>
      <point x="452" y="332"/>
      <point x="452" y="209" type="curve" smooth="yes"/>
      <point x="452" y="118"/>
      <point x="382" y="67"/>
      <point x="304" y="67" type="curve" smooth="yes"/>
      <point x="229" y="67"/>
      <point x="164" y="113"/>
      <point x="125" y="175" type="curve"/>
      <point x="61" y="123" type="line"/>
      <point x="96" y="71"/>
      <point x="177" y="-10"/>
      <point x="303" y="-10" type="curve" smooth="yes"/>
      <point x="437" y="-10"/>
      <point x="537" y="82"/>
      <point x="537" y="209" type="curve" smooth="yes"/>
      <point x="537" y="355"/>
      <point x="404" y="428"/>
    </contour>
  </outline>
</glyph>
<glyph name="four" format="2">
  <advance width="610"/>
  <unicode hex="0034"/>
  <outline>
    <contour>
      <point x="381" y="0" type="line"/>
      <point x="466" y="0" type="line"/>
      <point x="466" y="358" type="line"/>
      <point x="381" y="358" type="line"/>
    </contour>
    <contour>
      <point x="145" y="183" type="line"/>
      <point x="408" y="700" type="line"/>
      <point x="314" y="700" type="line"/>
      <point x="65" y="199" type="line"/>
      <point x="65" y="152" type="line"/>
      <point x="555" y="152" type="line"/>
      <point x="555" y="229" type="line"/>
      <point x="120" y="227" type="line"/>
    </contour>
  </outline>
</glyph>
<glyph name="five" format="2">
  <advance width="610"/>
  <unicode hex="0035"/>
  <guideline x="319" y="710" angle="270"/>
  <outline>
    <contour>
      <point x="66" y="123" type="line"/>
      <point x="84" y="96"/>
      <point x="162" y="-10"/>
      <point x="310" y="-10" type="curve" smooth="yes"/>
      <point x="473" y="-10"/>
      <point x="550" y="117"/>
      <point x="550" y="236" type="curve" smooth="yes"/>
      <point x="550" y="376"/>
      <point x="444" y="464"/>
      <point x="316" y="464" type="curve" smooth="yes"/>
      <point x="219" y="464"/>
      <point x="152" y="417"/>
      <point x="123" y="308" type="curve"/>
      <point x="167" y="308" type="line"/>
      <point x="199" y="355"/>
      <point x="244" y="387"/>
      <point x="311" y="387" type="curve" smooth="yes"/>
      <point x="416" y="387"/>
      <point x="465" y="308"/>
      <point x="465" y="231" type="curve" smooth="yes"/>
      <point x="465" y="147"/>
      <point x="408" y="67"/>
      <point x="309" y="67" type="curve" smooth="yes"/>
      <point x="209" y="67"/>
      <point x="147" y="148"/>
      <point x="130" y="175" type="curve"/>
    </contour>
    <contour>
      <point x="497" y="700" type="line"/>
      <point x="130" y="700" type="line"/>
      <point x="94" y="308" type="line"/>
      <point x="167" y="308" type="line"/>
      <point x="202" y="668" type="line"/>
      <point x="160" y="624" type="line"/>
      <point x="497" y="622" type="line"/>
    </contour>
  </outline>
</glyph>
<glyph name="six" format="2">
  <advance width="610"/>
  <unicode hex="0036"/>
  <outline>
    <contour>
      <point x="459" y="549" type="curve"/>
      <point x="534" y="585" type="line"/>
      <point x="502" y="650"/>
      <point x="437" y="710"/>
      <point x="329" y="710" type="curve" smooth="yes"/>
      <point x="145" y="710"/>
      <point x="59" y="534"/>
      <point x="59" y="334" type="curve" smooth="yes"/>
      <point x="59" y="132"/>
      <point x="146" y="-10"/>
      <point x="314" y="-10" type="curve" smooth="yes"/>
      <point x="469" y="-10"/>
      <point x="550" y="110"/>
      <point x="550" y="236" type="curve" smooth="yes"/>
      <point x="550" y="382"/>
      <point x="440" y="463"/>
      <point x="324" y="463" type="curve" smooth="yes"/>
      <point x="188" y="463"/>
      <point x="103" y="350"/>
      <point x="122" y="191" type="curve"/>
      <point x="163" y="191" type="line"/>
      <point x="146" y="324"/>
      <point x="229" y="386"/>
      <point x="322" y="386" type="curve" smooth="yes"/>
      <point x="435" y="386"/>
      <point x="465" y="293"/>
      <point x="465" y="233" type="curve" smooth="yes"/>
      <point x="465" y="163"/>
      <point x="424" y="67"/>
      <point x="316" y="67" type="curve" smooth="yes"/>
      <point x="193" y="67"/>
      <point x="144" y="190"/>
      <point x="144" y="326" type="curve" smooth="yes"/>
      <point x="144" y="425"/>
      <point x="170" y="633"/>
      <point x="330" y="633" type="curve" smooth="yes"/>
      <point x="382" y="633"/>
      <point x="429" y="611"/>
    </contour>
  </outline>
</glyph>
<glyph name="seven" format="2">
  <advance width="610"/>
  <unicode hex="0037"/>
  <outline>
    <contour>
      <point x="464" y="689" type="line"/>
      <point x="315" y="459"/>
      <point x="220" y="230"/>
      <point x="191" y="0" type="curve"/>
      <point x="276" y="0" type="line"/>
      <point x="299" y="218"/>
      <point x="376" y="436"/>
      <point x="531" y="654" type="curve"/>
      <point x="531" y="700" type="line"/>
      <point x="79" y="700" type="line"/>
      <point x="79" y="623" type="line"/>
      <point x="483" y="627" type="line"/>
    </contour>
  </outline>
</glyph>
<glyph name="eight" format="2">
  <advance width="610"/>
  <unicode hex="0038"/>
  <outline>
    <contour>
      <point x="305" y="399" type="line"/>
      <point x="252" y="401"/>
      <point x="68" y="358"/>
      <point x="68" y="191" type="curve" smooth="yes"/>
      <point x="68" y="69"/>
      <point x="167" y="-10"/>
      <point x="305" y="-10" type="curve" smooth="yes"/>
      <point x="442" y="-10"/>
      <point x="542" y="67"/>
      <point x="542" y="201" type="curve" smooth="yes"/>
      <point x="542" y="364"/>
      <point x="395" y="385"/>
      <point x="305" y="405" type="curve" smooth="yes"/>
      <point x="233" y="421"/>
      <point x="177" y="441"/>
      <point x="177" y="520" type="curve" smooth="yes"/>
      <point x="177" y="601"/>
      <point x="236" y="633"/>
      <point x="305" y="633" type="curve" smooth="yes"/>
      <point x="374" y="633"/>
      <point x="432" y="601"/>
      <point x="432" y="520" type="curve" smooth="yes"/>
      <point x="432" y="445"/>
      <point x="382" y="384"/>
      <point x="305" y="375" type="curve"/>
      <point x="305" y="334" type="line"/>
      <point x="418" y="340"/>
      <point x="517" y="401"/>
      <point x="517" y="523" type="curve" smooth="yes"/>
      <point x="517" y="634"/>
      <point x="434" y="710"/>
      <point x="305" y="710" type="curve" smooth="yes"/>
      <point x="176" y="710"/>
      <point x="92" y="635"/>
      <point x="92" y="516" type="curve" smooth="yes"/>
      <point x="92" y="384"/>
      <point x="197" y="353"/>
      <point x="305" y="328" type="curve" smooth="yes"/>
      <point x="386" y="309"/>
      <point x="457" y="295"/>
      <point x="457" y="200" type="curve" smooth="yes"/>
      <point x="457" y="115"/>
      <point x="400" y="67"/>
      <point x="305" y="67" type="curve" smooth="yes"/>
      <point x="208" y="67"/>
      <point x="153" y="116"/>
      <point x="153" y="196" type="curve" smooth="yes"/>
      <point x="153" y="276"/>
      <point x="213" y="345"/>
      <point x="305" y="358" type="curve"/>
    </contour>
  </outline>
</glyph>
<glyph name="nine" format="2">
  <advance width="610"/>
  <unicode hex="0039"/>
  <outline>
    <contour>
      <point x="150" y="151" type="curve"/>
      <point x="75" y="115" type="line"/>
      <point x="108" y="48"/>
      <point x="180" y="-10"/>
      <point x="288" y="-10" type="curve" smooth="yes"/>
      <point x="475" y="-10"/>
      <point x="550" y="165"/>
      <point x="550" y="364" type="curve" smooth="yes"/>
      <point x="550" y="569"/>
      <point x="471" y="710"/>
      <point x="302" y="710" type="curve" smooth="yes"/>
      <point x="147" y="710"/>
      <point x="59" y="591"/>
      <point x="59" y="464" type="curve" smooth="yes"/>
      <point x="59" y="319"/>
      <point x="175" y="237"/>
      <point x="292" y="237" type="curve" smooth="yes"/>
      <point x="431" y="237"/>
      <point x="508" y="354"/>
      <point x="489" y="509" type="curve"/>
      <point x="448" y="509" type="line"/>
      <point x="465" y="376"/>
      <point x="387" y="314"/>
      <point x="294" y="314" type="curve" smooth="yes"/>
      <point x="181" y="314"/>
      <point x="144" y="407"/>
      <point x="144" y="468" type="curve" smooth="yes"/>
      <point x="144" y="537"/>
      <point x="192" y="633"/>
      <point x="301" y="633" type="curve" smooth="yes"/>
      <point x="436" y="633"/>
      <point x="465" y="486"/>
      <point x="465" y="369" type="curve" smooth="yes"/>
      <point x="465" y="274"/>
      <point x="446" y="67"/>
      <point x="286" y="67" type="curve" smooth="yes"/>
      <point x="241" y="67"/>
      <point x="183" y="83"/>
    </contour>
  </outline>
</glyph>
<glyph name="colon" format="2">
  <advance width="610"/>
  <unicode hex="003A"/>
  <outline>
    <contour>
      <point x="259" y="153" type="line"/>
      <point x="259" y="70" type="line"/>
      <point x="342" y="70" type="line"/>
      <point x="342" y="153" type="line"/>
    </contour>
    <contour>
      <point x="259" y="446" type="line"/>
      <point x="259" y="363" type="line"/>
      <point x="342" y="363" type="line"/>
      <point x="342" y="446" type="line"/>
    </contour>
  </outline>
</glyph>
<glyph name="less" format="2">
  <advance width="610"/>
  <unicode hex="003C"/>
  <outline>
    <contour>
      <point x="461" y="58" type="line"/>
      <point x="501" y="124" type="line"/>
      <point x="145" y="298" type="line"/>
      <point x="145" y="258" type="line"/>
      <point x="501" y="432" type="line"/>
      <point x="461" y="498" type="line"/>
      <point x="99" y="315" type="line"/>
      <point x="99" y="241" type="line"/>
    </contour>
  </outline>
</glyph>
<glyph name="question" format="2">
  <advance width="610"/>
  <unicode hex="003F"/>
  <outline>
    <contour>
      <point x="258" y="148" type="curve"/>
      <point x="340" y="148" type="line"/>
      <point x="322" y="241"/>
      <point x="356" y="294"/>
      <point x="415" y="344" type="curve" smooth="yes"/>
      <point x="462" y="384"/>
      <point x="526" y="430"/>
      <point x="526" y="526" type="curve" smooth="yes"/>
      <point x="526" y="651"/>
      <point x="419" y="710"/>
      <point x="305" y="710" type="curve" smooth="yes"/>
      <point x="182" y="710"/>
      <point x="107" y="642"/>
      <point x="75" y="530" type="curve"/>
      <point x="149" y="498" type="line"/>
      <point x="186" y="608"/>
      <point x="233" y="635"/>
      <point x="303" y="635" type="curve" smooth="yes"/>
      <point x="365" y="635"/>
      <point x="443" y="611"/>
      <point x="443" y="526" type="curve" smooth="yes"/>
      <point x="443" y="457"/>
      <point x="392" y="427"/>
      <point x="349" y="390" type="curve" smooth="yes"/>
      <point x="278" y="328"/>
      <point x="239" y="249"/>
    </contour>
    <contour>
      <point x="258" y="73" type="line"/>
      <point x="258" y="-10" type="line"/>
      <point x="341" y="-10" type="line"/>
      <point x="341" y="73" type="line"/>
    </contour>
  </outline>
</glyph>
<glyph name="A" format="2">
  <advance width="610"/>
  <unicode hex="0041"/>
  <anchor x="401" y="10" name="ogonek"/>
  <anchor x="303" y="800" name="top"/>
  <outline>
    <contour>
      <point x="156" y="287" type="line"/>
      <point x="156" y="211" type="line"/>
      <point x="454" y="211" type="line"/>
      <point x="454" y="287" type="line"/>
    </contour>
    <contour>
      <point x="580" y="0" type="line"/>
      <point x="337" y="700" type="line"/>
      <point x="274" y="700" type="line"/>
      <point x="30" y="0" type="line"/>
      <point x="120" y="0" type="line"/>
      <point x="329" y="633" type="line"/>
      <point x="281" y="633" type="line"/>
      <point x="490" y="0" type="line"/>
    </contour>
  </outline>
</glyph>
<glyph name="B" format="2">
  <advance width="610"/>
  <unicode hex="0042"/>
  <outline>
    <contour>
      <point x="309" y="362" type="line" smooth="yes"/>
      <point x="425" y="362"/>
      <point x="502" y="419"/>
      <point x="502" y="522" type="curve" smooth="yes"/>
      <point x="502" y="624"/>
      <point x="423" y="700"/>
      <point x="309" y="700" type="curve" smooth="yes"/>
      <point x="122" y="700" type="line"/>
      <point x="122" y="623" type="line"/>
      <point x="305" y="623" type="line" smooth="yes"/>
      <point x="399" y="623"/>
      <point x="417" y="558"/>
      <point x="417" y="522" type="curve" smooth="yes"/>
      <point x="417" y="484"/>
      <point x="399" y="419"/>
      <point x="317" y="419" type="curve"/>
      <point x="268" y="419" type="line"/>
      <point x="268" y="362" type="line"/>
    </contour>
    <contour>
      <point x="83" y="0" type="line"/>
      <point x="168" y="0" type="line"/>
      <point x="168" y="700" type="line"/>
      <point x="83" y="700" type="line"/>
    </contour>
    <contour>
      <point x="323" y="0" type="line" smooth="yes"/>
      <point x="452" y="0"/>
      <point x="526" y="105"/>
      <point x="526" y="209" type="curve" smooth="yes"/>
      <point x="526" y="317"/>
      <point x="437" y="419"/>
      <point x="295" y="419" type="curve" smooth="yes"/>
      <point x="126" y="419" type="line"/>
      <point x="126" y="342" type="line"/>
      <point x="290" y="342" type="line" smooth="yes"/>
      <point x="425" y="342"/>
      <point x="441" y="247"/>
      <point x="441" y="209" type="curve" smooth="yes"/>
      <point x="441" y="171"/>
      <point x="424" y="77"/>
      <point x="310" y="77" type="curve" smooth="yes"/>
      <point x="146" y="77" type="line"/>
      <point x="146" y="0" type="line"/>
    </contour>
  </outline>
</glyph>
<glyph name="C" format="2">
  <advance width="610"/>
  <unicode hex="0043"/>
  <anchor x="336" y="0" name="bottom"/>
  <anchor x="313" y="800" name="top"/>
  <outline>
    <contour>
      <point x="327" y="67" type="curve" smooth="yes"/>
      <point x="208" y="67"/>
      <point x="135" y="166"/>
      <point x="135" y="350" type="curve" smooth="yes"/>
      <point x="135" y="534"/>
      <point x="208" y="633"/>
      <point x="327" y="633" type="curve" smooth="yes"/>
      <point x="424" y="633"/>
      <point x="461" y="557"/>
      <point x="485" y="496" type="curve"/>
      <point x="560" y="528" type="line"/>
      <point x="541" y="594"/>
      <point x="478" y="710"/>
      <point x="327" y="710" type="curve" smooth="yes"/>
      <point x="133" y="710"/>
      <point x="50" y="540"/>
      <point x="50" y="350" type="curve" smooth="yes"/>
      <point x="50" y="160"/>
      <point x="133" y="-10"/>
      <point x="327" y="-10" type="curve" smooth="yes"/>
      <point x="478" y="-10"/>
      <point x="541" y="106"/>
      <point x="560" y="172" type="curve"/>
      <point x="485" y="204" type="line"/>
      <point x="461" y="143"/>
      <point x="424" y="67"/>
    </contour>
  </outline>
</glyph>
<glyph name="E" format="2">
  <advance width="610"/>
  <unicode hex="0045"/>
  <anchor x="305" y="0" name="bottom"/>
  <anchor x="360" y="0" name="ogonek"/>
  <anchor x="295" y="800" name="top"/>
  <outline>
    <contour>
      <point x="143" y="77" type="line"/>
      <point x="143" y="0" type="line"/>
      <point x="520" y="0" type="line"/>
      <point x="520" y="77" type="line"/>
    </contour>
    <contour>
      <point x="90" y="700" type="line"/>
      <point x="90" y="0" type="line"/>
      <point x="175" y="0" type="line"/>
      <point x="175" y="700" type="line"/>
    </contour>
    <contour>
      <point x="132" y="700" type="line"/>
      <point x="132" y="623" type="line"/>
      <point x="510" y="623" type="line"/>
      <point x="510" y="700" type="line"/>
    </contour>
    <contour>
      <point x="100" y="407" type="line"/>
      <point x="100" y="330" type="line"/>
      <point x="460" y="330" type="line"/>
      <point x="460" y="407" type="line"/>
    </contour>
  </outline>
</glyph>
<glyph name="F" format="2">
  <advance width="610"/>
  <unicode hex="0046"/>
  <outline>
    <contour>
      <point x="86" y="700" type="line"/>
      <point x="86" y="0" type="line"/>
      <point x="171" y="0" type="line"/>
      <point x="171" y="700" type="line"/>
    </contour>
    <contour>
      <point x="130" y="700" type="line"/>
      <point x="130" y="623" type="line"/>
      <point x="523" y="623" type="line"/>
      <point x="523" y="700" type="line"/>
    </contour>
    <contour>
      <point x="128" y="396" type="line"/>
      <point x="128" y="319" type="line"/>
      <point x="473" y="319" type="line"/>
      <point x="473" y="396" type="line"/>
    </contour>
  </outline>
</glyph>
<glyph name="G" format="2">
  <advance width="610"/>
  <unicode hex="0047"/>
  <guideline x="284" y="-75" angle="0"/>
  <anchor x="305" y="0" name="bottom"/>
  <anchor x="322" y="800" name="top"/>
  <outline>
    <contour>
      <point x="516" y="251" type="curve"/>
      <point x="485" y="251" type="line"/>
      <point x="485" y="126"/>
      <point x="411" y="66"/>
      <point x="323" y="67" type="curve" smooth="yes"/>
      <point x="205" y="68"/>
      <point x="133" y="167"/>
      <point x="133" y="350" type="curve" smooth="yes"/>
      <point x="133" y="534"/>
      <point x="206" y="633"/>
      <point x="323" y="633" type="curve" smooth="yes"/>
      <point x="424" y="633"/>
      <point x="461" y="557"/>
      <point x="485" y="496" type="curve"/>
      <point x="560" y="528" type="line"/>
      <point x="541" y="594"/>
      <point x="478" y="710"/>
      <point x="323" y="710" type="curve" smooth="yes"/>
      <point x="131" y="710"/>
      <point x="48" y="540"/>
      <point x="48" y="350" type="curve" smooth="yes"/>
      <point x="48" y="154"/>
      <point x="136" y="-10"/>
      <point x="323" y="-10" type="curve" smooth="yes"/>
      <point x="400" y="-10"/>
      <point x="516" y="32"/>
    </contour>
    <contour>
      <point x="346" y="249" type="line"/>
      <point x="530" y="253" type="line"/>
      <point x="485" y="296" type="line"/>
      <point x="485" y="112" type="line"/>
      <point x="496" y="0" type="line"/>
      <point x="558" y="0" type="line"/>
      <point x="558" y="326" type="line"/>
      <point x="346" y="326" type="line"/>
    </contour>
  </outline>
</glyph>
<glyph name="H" format="2">
  <advance width="610"/>
  <unicode hex="0048"/>
  <anchor x="305" y="0" name="bottom"/>
  <anchor x="306" y="516" name="center"/>
  <anchor x="305" y="800" name="top"/>
  <anchor x="20" y="700" name="topleft"/>
  <outline>
    <contour>
      <point x="90" y="700" type="line"/>
      <point x="90" y="0" type="line"/>
      <point x="175" y="0" type="line"/>
      <point x="175" y="700" type="line"/>
    </contour>
    <contour>
      <point x="120" y="416" type="line"/>
      <point x="120" y="339" type="line"/>
      <point x="500" y="339" type="line"/>
      <point x="500" y="416" type="line"/>
    </contour>
    <contour>
      <point x="435" y="700" type="line"/>
      <point x="435" y="0" type="line"/>
      <point x="520" y="0" type="line"/>
      <point x="520" y="700" type="line"/>
    </contour>
  </outline>
</glyph>
<glyph name="I" format="2">
  <advance width="610"/>
  <unicode hex="0049"/>
  <anchor x="338" y="0" name="ogonek"/>
  <anchor x="305" y="800" name="top"/>
  <outline>
    <contour>
      <point x="263" y="700" type="line"/>
      <point x="263" y="0" type="line"/>
      <point x="348" y="0" type="line"/>
      <point x="348" y="700" type="line"/>
    </contour>
    <contour>
      <point x="95" y="77" type="line"/>
      <point x="95" y="0" type="line"/>
      <point x="515" y="0" type="line"/>
      <point x="515" y="77" type="line"/>
    </contour>
    <contour>
      <point x="95" y="700" type="line"/>
      <point x="95" y="623" type="line"/>
      <point x="515" y="623" type="line"/>
      <point x="515" y="700" type="line"/>
    </contour>
  </outline>
</glyph>
<glyph name="J" format="2">
  <advance width="610"/>
  <unicode hex="004A"/>
  <anchor x="300" y="0" name="bottom"/>
  <anchor x="300" y="800" name="top"/>
  <outline>
    <contour>
      <point x="510" y="700" type="line"/>
      <point x="425" y="700" type="line"/>
      <point x="425" y="213" type="line" smooth="yes"/>
      <point x="425" y="101"/>
      <point x="364" y="67"/>
      <point x="295" y="67" type="curve" smooth="yes"/>
      <point x="228" y="67"/>
      <point x="169" y="119"/>
      <point x="150" y="207" type="curve"/>
      <point x="75" y="175" type="line"/>
      <point x="97" y="76"/>
      <point x="177" y="-10"/>
      <point x="295" y="-10" type="curve" smooth="yes"/>
      <point x="406" y="-10"/>
      <point x="510" y="53"/>
      <point x="510" y="215" type="curve" smooth="yes"/>
    </contour>
  </outline>
</glyph>
<glyph name="K" format="2">
  <advance width="610"/>
  <unicode hex="004B"/>
  <anchor x="282" y="0" name="bottom"/>
  <anchor x="291" y="800" name="top"/>
  <outline>
    <contour>
      <point x="452" y="0" type="line"/>
      <point x="553" y="0" type="line"/>
      <point x="302" y="446" type="line"/>
      <point x="295" y="387" type="line"/>
      <point x="528" y="700" type="line"/>
      <point x="421" y="700" type="line"/>
      <point x="142" y="306" type="line"/>
      <point x="172" y="297" type="line"/>
      <point x="172" y="700" type="line"/>
      <point x="87" y="700" type="line"/>
      <point x="87" y="0" type="line"/>
      <point x="172" y="0" type="line"/>
      <point x="172" y="268" type="line"/>
      <point x="145" y="187" type="line"/>
      <point x="284" y="373" type="line"/>
      <point x="254" y="373" type="line"/>
    </contour>
  </outline>
</glyph>
<glyph name="L" format="2">
  <advance width="610"/>
  <unicode hex="004C"/>
  <anchor x="287" y="0" name="bottom"/>
  <anchor x="216" y="348" name="center"/>
  <anchor x="305" y="800" name="top"/>
  <anchor x="590" y="700" name="topright"/>
  <outline>
    <contour>
      <point x="146" y="77" type="line"/>
      <point x="146" y="0" type="line"/>
      <point x="543" y="0" type="line"/>
      <point x="543" y="77" type="line"/>
    </contour>
    <contour>
      <point x="105" y="700" type="line"/>
      <point x="105" y="0" type="line"/>
      <point x="190" y="0" type="line"/>
      <point x="190" y="699" type="line"/>
    </contour>
  </outline>
</glyph>
<glyph name="M" format="2">
  <advance width="610"/>
  <unicode hex="004D"/>
  <anchor x="502" y="0" name="bottom"/>
  <anchor x="305" y="800" name="top"/>
  <outline>
    <contour>
      <point x="544" y="0" type="line"/>
      <point x="543" y="700" type="line"/>
      <point x="475" y="700" type="line"/>
      <point x="291" y="379" type="line"/>
      <point x="319" y="379" type="line"/>
      <point x="135" y="700" type="line"/>
      <point x="67" y="700" type="line"/>
      <point x="66" y="0" type="line"/>
      <point x="151" y="0" type="line"/>
      <point x="148" y="592" type="line"/>
      <point x="121" y="592" type="line"/>
      <point x="278" y="305" type="line"/>
      <point x="332" y="305" type="line"/>
      <point x="489" y="592" type="line"/>
      <point x="462" y="592" type="line"/>
      <point x="459" y="0" type="line"/>
    </contour>
  </outline>
</glyph>
<glyph name="N" format="2">
  <advance width="610"/>
  <unicode hex="004E"/>
  <anchor x="305" y="0" name="bottom"/>
  <anchor x="305" y="800" name="top"/>
  <outline>
    <contour>
      <point x="451" y="700" type="line"/>
      <point x="456" y="92" type="line"/>
      <point x="515" y="62" type="line"/>
      <point x="142" y="700" type="line"/>
      <point x="74" y="700" type="line"/>
      <point x="74" y="0" type="line"/>
      <point x="159" y="0" type="line"/>
      <point x="154" y="611" type="line"/>
      <point x="99" y="631" type="line"/>
      <point x="468" y="0" type="line"/>
      <point x="536" y="0" type="line"/>
      <point x="536" y="700" type="line"/>
    </contour>
  </outline>
</glyph>
<glyph name="O" format="2">
  <advance width="610"/>
  <unicode hex="004F"/>
  <anchor x="305" y="350" name="center"/>
  <anchor x="312" y="10" name="ogonek"/>
  <anchor x="305" y="800" name="top"/>
  <anchor x="20" y="700" name="topleft"/>
  <anchor x="590" y="700" name="topright"/>
  <outline>
    <contour>
      <point x="305" y="710" type="curve" smooth="yes"/>
      <point x="120" y="710"/>
      <point x="40" y="529"/>
      <point x="40" y="350" type="curve" smooth="yes"/>
      <point x="40" y="171"/>
      <point x="120" y="-10"/>
      <point x="305" y="-10" type="curve" smooth="yes"/>
      <point x="490" y="-10"/>
      <point x="570" y="171"/>
      <point x="570" y="350" type="curve" smooth="yes"/>
      <point x="570" y="529"/>
      <point x="490" y="710"/>
    </contour>
    <contour>
      <point x="305" y="67" type="curve" smooth="yes"/>
      <point x="190" y="67"/>
      <point x="125" y="188"/>
      <point x="125" y="350" type="curve" smooth="yes"/>
      <point x="125" y="512"/>
      <point x="190" y="633"/>
      <point x="305" y="633" type="curve" smooth="yes"/>
      <point x="420" y="633"/>
      <point x="485" y="512"/>
      <point x="485" y="350" type="curve" smooth="yes"/>
      <point x="485" y="188"/>
      <point x="420" y="67"/>
    </contour>
  </outline>
</glyph>
<glyph name="P" format="2">
  <advance width="610"/>
  <unicode hex="0050"/>
  <anchor x="305" y="0" name="bottom"/>
  <anchor x="305" y="700" name="top"/>
  <outline>
    <contour>
      <point x="72" y="0" type="line"/>
      <point x="157" y="0" type="line"/>
      <point x="157" y="700" type="line"/>
      <point x="72" y="700" type="line"/>
    </contour>
    <contour>
      <point x="342" y="700" type="curve" smooth="yes"/>
      <point x="110" y="700" type="line"/>
      <point x="110" y="623" type="line"/>
      <point x="333" y="623" type="line" smooth="yes"/>
      <point x="448" y="623"/>
      <point x="463" y="545"/>
      <point x="463" y="496" type="curve" smooth="yes"/>
      <point x="463" y="447"/>
      <point x="448" y="369"/>
      <point x="333" y="369" type="curve" smooth="yes"/>
      <point x="110" y="369" type="line"/>
      <point x="110" y="292" type="line"/>
      <point x="342" y="292" type="line" smooth="yes"/>
      <point x="488" y="292"/>
      <point x="548" y="396"/>
      <point x="548" y="496" type="curve" smooth="yes"/>
      <point x="548" y="596"/>
      <point x="488" y="700"/>
    </contour>
  </outline>
</glyph>
<glyph name="Q" format="2">
  <advance width="610"/>
  <unicode hex="0051"/>
  <outline>
    <contour>
      <point x="469" y="-102" type="line"/>
      <point x="536" y="-56" type="line"/>
      <point x="411" y="97" type="line"/>
      <point x="345" y="53" type="line"/>
    </contour>
    <component base="O"/>
  </outline>
</glyph>
<glyph name="U" format="2">
  <advance width="610"/>
  <unicode hex="0055"/>
  <anchor x="305" y="0" name="bottom"/>
  <anchor x="319" y="10" name="ogonek"/>
  <anchor x="302" y="800" name="top"/>
  <anchor x="590" y="700" name="topright"/>
  <outline>
    <contour>
      <point x="456" y="700" type="line"/>
      <point x="456" y="233" type="line" smooth="yes"/>
      <point x="456" y="121"/>
      <point x="398" y="67"/>
      <point x="305" y="67" type="curve"/>
      <point x="212" y="67"/>
      <point x="154" y="121"/>
      <point x="154" y="233" type="curve" smooth="yes"/>
      <point x="154" y="700" type="line"/>
      <point x="69" y="700" type="line"/>
      <point x="69" y="232" type="line" smooth="yes"/>
      <point x="69" y="76"/>
      <point x="171" y="-10"/>
      <point x="305" y="-10" type="curve" smooth="yes"/>
      <point x="439" y="-10"/>
      <point x="541" y="76"/>
      <point x="541" y="232" type="curve" smooth="yes"/>
      <point x="541" y="700" type="line"/>
    </contour>
  </outline>
</glyph>
<glyph name="W" format="2">
  <advance width="610"/>
  <unicode hex="0057"/>
  <anchor x="305" y="0" name="bottom"/>
  <anchor x="305" y="800" name="top"/>
  <outline>
    <contour>
      <point x="490" y="700" type="line"/>
      <point x="416" y="67" type="line"/>
      <point x="456" y="67" type="line"/>
      <point x="337" y="500" type="line"/>
      <point x="306" y="500" type="line"/>
      <point x="306" y="499" type="line"/>
      <point x="305" y="500" type="line"/>
      <point x="274" y="500" type="line"/>
      <point x="155" y="67" type="line"/>
      <point x="195" y="67" type="line"/>
      <point x="121" y="700" type="line"/>
      <point x="35" y="700" type="line"/>
      <point x="129" y="0" type="line"/>
      <point x="200" y="0" type="line"/>
      <point x="320" y="409" type="line"/>
      <point x="292" y="409" type="line"/>
      <point x="411" y="0" type="line"/>
      <point x="482" y="0" type="line"/>
      <point x="576" y="700" type="line"/>
    </contour>
  </outline>
</glyph>
<glyph name="X" format="2">
  <advance width="610"/>
  <unicode hex="0058"/>
  <guideline x="576" y="700" angle="270"/>
  <outline>
    <contour>
      <point x="571" y="700" type="line"/>
      <point x="472" y="700" type="line"/>
      <point x="292" y="397" type="line"/>
      <point x="326" y="397" type="line"/>
      <point x="139" y="700" type="line"/>
      <point x="40" y="700" type="line"/>
      <point x="277" y="332" type="line"/>
      <point x="274" y="410" type="line"/>
      <point x="35" y="0" type="line"/>
      <point x="134" y="0" type="line"/>
      <point x="320" y="332" type="line"/>
      <point x="287" y="332" type="line"/>
      <point x="477" y="0" type="line"/>
      <point x="576" y="0" type="line"/>
      <point x="334" y="408" type="line"/>
      <point x="337" y="330" type="line"/>
    </contour>
  </outline>
</glyph>
<glyph name="Y" format="2">
  <advance width="610"/>
  <unicode hex="0059"/>
  <anchor x="305" y="0" name="bottom"/>
  <anchor x="305" y="800" name="top"/>
  <anchor x="20" y="700" name="topleft"/>
  <outline>
    <contour>
      <point x="480" y="700" type="line"/>
      <point x="282" y="307" type="line"/>
      <point x="330" y="306" type="line"/>
      <point x="131" y="700" type="line"/>
      <point x="36" y="700" type="line"/>
      <point x="263" y="284" type="line"/>
      <point x="263" y="0" type="line"/>
      <point x="348" y="0" type="line"/>
      <point x="348" y="284" type="line"/>
      <point x="575" y="700" type="line"/>
    </contour>
  </outline>
</glyph>
<glyph name="Z" format="2">
  <advance width="610"/>
  <unicode hex="005A"/>
  <anchor x="305" y="0" name="bottom"/>
  <anchor x="305" y="800" name="top"/>
  <outline>
    <contour>
      <point x="123" y="4" type="line"/>
      <point x="537" y="650" type="line"/>
      <point x="537" y="700" type="line"/>
      <point x="72" y="700" type="line"/>
      <point x="72" y="623" type="line"/>
      <point x="471" y="623" type="line"/>
      <point x="466" y="694" type="line"/>
      <point x="54" y="50" type="line"/>
      <point x="54" y="0" type="line"/>
      <point x="556" y="0" type="line"/>
      <point x="556" y="75" type="line"/>
      <point x="119" y="75" type="line"/>
    </contour>
  </outline>
</glyph>
<glyph name="bracketleft" format="2">
  <advance width="610"/>
  <unicode hex="005B"/>
  <outline>
    <contour>
      <point x="275" y="757" type="line"/>
      <point x="190" y="757" type="line"/>
      <point x="190" y="-165" type="line"/>
      <point x="275" y="-165" type="line"/>
    </contour>
    <contour>
      <point x="192" y="757" type="line"/>
      <point x="192" y="682" type="line"/>
      <point x="408" y="682" type="line"/>
      <point x="408" y="757" type="line"/>
    </contour>
    <contour>
      <point x="192" y="-90" type="line"/>
      <point x="192" y="-165" type="line"/>
      <point x="408" y="-165" type="line"/>
      <point x="408" y="-90" type="line"/>
    </contour>
  </outline>
</glyph>
<glyph name="backslash" format="2">
  <advance width="610"/>
  <unicode hex="005C"/>
  <outline>
    <contour>
      <point x="320" y="-70" type="line"/>
      <point x="406" y="-70" type="line"/>
      <point x="264" y="700" type="line"/>
      <point x="178" y="700" type="line"/>
    </contour>
  </outline>
</glyph>
<glyph name="bracketright" format="2">
  <advance width="610"/>
  <unicode hex="005D"/>
  <guideline x="229" y="-164" angle="0"/>
  <guideline x="229" y="757" angle="0"/>
  <outline>
    <contour>
      <point x="325" y="757" type="line"/>
      <point x="325" y="-165" type="line"/>
      <point x="410" y="-165" type="line"/>
      <point x="410" y="757" type="line"/>
    </contour>
    <contour>
      <point x="408" y="757" type="line"/>
      <point x="192" y="757" type="line"/>
      <point x="192" y="682" type="line"/>
      <point x="408" y="682" type="line"/>
    </contour>
    <contour>
      <point x="408" y="-90" type="line"/>
      <point x="192" y="-90" type="line"/>
      <point x="192" y="-165" type="line"/>
      <point x="408" y="-165" type="line"/>
    </contour>
  </outline>
</glyph>
<glyph name="asciicircum" format="2">
  <advance width="610"/>
  <unicode hex="005E"/>
  <outline>
    <contour>
      <point x="519" y="389" type="line"/>
      <point x="322" y="700" type="line"/>
      <point x="240" y="700" type="line"/>
      <point x="43" y="389" type="line"/>
      <point x="142" y="389" type="line"/>
      <point x="301" y="675" type="line"/>
      <point x="261" y="675" type="line"/>
      <point x="420" y="389" type="line"/>
    </contour>
  </outline>
</glyph>
<glyph name="underscore" format="2">
  <advance width="610"/>
  <unicode hex="005F"/>
  <outline>
    <contour>
      <point x="89" y="-10" type="line"/>
      <point x="89" y="-87" type="line"/>
      <point x="511" y="-87" type="line"/>
      <point x="511" y="-10" type="line"/>
    </contour>
  </outline>
</glyph>
<glyph name="a" format="2">
  <advance width="610"/>
  <unicode hex="0061"/>
  <anchor x="315" y="0" name="bottom"/>
  <anchor x="383" y="10" name="ogonek"/>
  <anchor x="295" y="580" name="top"/>
  <outline>
    <contour>
      <point x="399" y="45" type="move"/>
    </contour>
    <contour>
      <point x="427" y="74" type="line"/>
      <point x="427" y="0" type="line"/>
      <point x="550" y="0" type="line"/>
      <point x="550" y="74" type="line"/>
    </contour>
    <contour>
      <point x="295" y="480" type="curve" smooth="yes"/>
      <point x="218" y="480"/>
      <point x="138" y="450"/>
      <point x="97" y="356" type="curve"/>
      <point x="167" y="320" type="line"/>
      <point x="188" y="372"/>
      <point x="226" y="405"/>
      <point x="293" y="405" type="curve" smooth="yes"/>
      <point x="366" y="405"/>
      <point x="396" y="361"/>
      <point x="396" y="317" type="curve" smooth="yes"/>
      <point x="396" y="263" type="line"/>
      <point x="396" y="59" type="line"/>
      <point x="427" y="0" type="line"/>
      <point x="479" y="0" type="line"/>
      <point x="479" y="273" type="line"/>
      <point x="479" y="313" type="line" smooth="yes"/>
      <point x="479" y="414"/>
      <point x="405" y="480"/>
    </contour>
    <contour>
      <point x="164" y="125" type="curve" smooth="yes"/>
      <point x="164" y="176"/>
      <point x="225" y="186"/>
      <point x="289" y="193" type="curve" smooth="yes"/>
      <point x="363" y="202"/>
      <point x="443" y="223"/>
      <point x="443" y="305" type="curve"/>
      <point x="396" y="304" type="line"/>
      <point x="396" y="275"/>
      <point x="348" y="270"/>
      <point x="289" y="263" type="curve" smooth="yes"/>
      <point x="197" y="252"/>
      <point x="78" y="235"/>
      <point x="78" y="121" type="curve" smooth="yes"/>
      <point x="78" y="36"/>
      <point x="146" y="-10"/>
      <point x="240" y="-10" type="curve" smooth="yes"/>
      <point x="358" y="-10"/>
      <point x="427" y="52"/>
      <point x="427" y="171" type="curve"/>
      <point x="396" y="171" type="line"/>
      <point x="396" y="111"/>
      <point x="347" y="65"/>
      <point x="257" y="65" type="curve" smooth="yes"/>
      <point x="191" y="65"/>
      <point x="164" y="91"/>
    </contour>
  </outline>
</glyph>
<glyph name="c" format="2">
  <advance width="610"/>
  <unicode hex="0063"/>
  <guideline x="48" y="-75" angle="0"/>
  <anchor x="321" y="0" name="bottom"/>
  <anchor x="397" y="10" name="ogonek"/>
  <anchor x="310" y="580" name="top"/>
  <outline>
    <contour>
      <point x="321" y="65" type="curve" smooth="yes"/>
      <point x="233" y="65"/>
      <point x="173" y="131"/>
      <point x="173" y="235" type="curve" smooth="yes"/>
      <point x="173" y="339"/>
      <point x="233" y="405"/>
      <point x="321" y="405" type="curve" smooth="yes"/>
      <point x="393" y="405"/>
      <point x="427" y="366"/>
      <point x="448" y="308" type="curve"/>
      <point x="520" y="344" type="line"/>
      <point x="490" y="416"/>
      <point x="436" y="480"/>
      <point x="321" y="480" type="curve" smooth="yes"/>
      <point x="162" y="480"/>
      <point x="90" y="353"/>
      <point x="90" y="235" type="curve" smooth="yes"/>
      <point x="90" y="117"/>
      <point x="162" y="-10"/>
      <point x="321" y="-10" type="curve" smooth="yes"/>
      <point x="437" y="-10"/>
      <point x="489" y="54"/>
      <point x="520" y="126" type="curve"/>
      <point x="448" y="162" type="line"/>
      <point x="427" y="104"/>
      <point x="393" y="65"/>
    </contour>
  </outline>
</glyph>
<glyph name="f" format="2">
  <advance width="610"/>
  <unicode hex="0066"/>
  <anchor x="310" y="1" name="top"/>
  <outline>
    <contour>
      <point x="69" y="470" type="line"/>
      <point x="69" y="395" type="line" smooth="yes"/>
      <point x="479" y="395" type="line" smooth="yes"/>
      <point x="479" y="470" type="line"/>
    </contour>
    <contour>
      <point x="487" y="556" type="curve"/>
      <point x="557" y="591" type="line"/>
      <point x="525" y="678"/>
      <point x="449" y="710"/>
      <point x="375" y="710" type="curve" smooth="yes"/>
      <point x="271" y="710"/>
      <point x="199" y="645"/>
      <point x="199" y="538" type="curve" smooth="yes"/>
      <point x="199" y="0" type="line"/>
      <point x="282" y="0" type="line"/>
      <point x="282" y="527" type="line" smooth="yes"/>
      <point x="282" y="587"/>
      <point x="300" y="635"/>
      <point x="373" y="635" type="curve" smooth="yes"/>
      <point x="443" y="635"/>
      <point x="464" y="604"/>
    </contour>
  </outline>
</glyph>
<glyph name="g" format="2">
  <advance width="610"/>
  <unicode hex="0067"/>
  <anchor x="305" y="-200" name="bottom"/>
  <anchor x="461" y="591" name="center"/>
  <anchor x="297" y="580" name="top"/>
  <anchor x="591" y="500" name="topright"/>
  <outline>
    <contour>
      <point x="519" y="-6" type="curve" smooth="yes"/>
      <point x="518" y="470" type="line"/>
      <point x="468" y="470" type="line"/>
      <point x="431" y="412" type="line"/>
      <point x="466" y="240" type="line"/>
      <point x="437" y="107" type="line"/>
      <point x="436" y="-4" type="line" smooth="yes"/>
      <point x="435" y="-64"/>
      <point x="435" y="-165"/>
      <point x="292" y="-165" type="curve" smooth="yes"/>
      <point x="213" y="-165"/>
      <point x="180" y="-134"/>
      <point x="156" y="-72" type="curve"/>
      <point x="87" y="-109" type="line"/>
      <point x="122" y="-203"/>
      <point x="190" y="-240"/>
      <point x="291" y="-240" type="curve" smooth="yes"/>
      <point x="430" y="-240"/>
      <point x="519" y="-169"/>
    </contour>
    <contour>
      <point x="289" y="480" type="curve" smooth="yes"/>
      <point x="134" y="480"/>
      <point x="73" y="346"/>
      <point x="73" y="235" type="curve" smooth="yes"/>
      <point x="73" y="124"/>
      <point x="134" y="-10"/>
      <point x="289" y="-10" type="curve" smooth="yes"/>
      <point x="447" y="-10"/>
      <point x="488" y="131"/>
      <point x="488" y="236" type="curve" smooth="yes"/>
      <point x="488" y="340"/>
      <point x="447" y="480"/>
    </contour>
    <contour>
      <point x="296" y="405" type="curve" smooth="yes"/>
      <point x="384" y="405"/>
      <point x="447" y="340"/>
      <point x="447" y="236" type="curve" smooth="yes"/>
      <point x="447" y="132"/>
      <point x="384" y="65"/>
      <point x="296" y="65" type="curve" smooth="yes"/>
      <point x="208" y="65"/>
      <point x="156" y="131"/>
      <point x="156" y="235" type="curve" smooth="yes"/>
      <point x="156" y="339"/>
      <point x="207" y="405"/>
    </contour>
  </outline>
</glyph>
<glyph name="h" format="2">
  <advance width="610"/>
  <unicode hex="0068"/>
  <anchor x="130" y="0" name="bottom"/>
  <anchor x="130" y="580" name="center"/>
  <anchor x="325" y="580" name="top"/>
  <outline>
    <contour>
      <point x="103" y="700" type="line"/>
      <point x="103" y="0" type="line"/>
      <point x="186" y="0" type="line"/>
      <point x="186" y="333" type="line"/>
      <point x="183" y="363" type="line"/>
      <point x="186" y="700" type="line"/>
    </contour>
    <contour>
      <point x="423" y="0" type="line"/>
      <point x="506" y="0" type="line"/>
      <point x="507" y="286" type="line" smooth="yes"/>
      <point x="507" y="401"/>
      <point x="437" y="480"/>
      <point x="331" y="480" type="curve" smooth="yes"/>
      <point x="228" y="480"/>
      <point x="145" y="405"/>
      <point x="145" y="213" type="curve"/>
      <point x="186" y="213" type="line"/>
      <point x="186" y="285"/>
      <point x="194" y="405"/>
      <point x="316" y="405" type="curve" smooth="yes"/>
      <point x="424" y="405"/>
      <point x="424" y="310"/>
      <point x="424" y="286" type="curve" smooth="yes"/>
      <point x="424" y="264" type="line"/>
    </contour>
  </outline>
</glyph>
<glyph name="k" format="2">
  <advance width="610"/>
  <unicode hex="006B"/>
  <anchor x="285" y="0" name="bottom"/>
  <anchor x="305" y="580" name="top"/>
  <outline>
    <contour>
      <point x="422" y="0" type="line"/>
      <point x="519" y="0" type="line"/>
      <point x="285" y="330" type="line"/>
      <point x="291" y="270" type="line"/>
      <point x="481" y="470" type="line"/>
      <point x="377" y="470" type="line"/>
      <point x="151" y="215" type="line"/>
      <point x="174" y="204" type="line"/>
      <point x="174" y="700" type="line"/>
      <point x="91" y="700" type="line"/>
      <point x="91" y="0" type="line"/>
      <point x="174" y="0" type="line"/>
      <point x="174" y="183" type="line"/>
      <point x="144" y="104" type="line"/>
      <point x="269" y="246" type="line"/>
      <point x="235" y="270" type="line"/>
    </contour>
  </outline>
</glyph>
<glyph name="l" format="2">
  <advance width="610"/>
  <unicode hex="006C"/>
  <anchor x="305" y="0" name="bottom"/>
  <anchor x="305" y="388" name="center"/>
  <anchor x="305" y="759" name="top"/>
  <anchor x="590" y="500" name="topright"/>
  <outline>
    <contour>
      <point x="263" y="700" type="line"/>
      <point x="264" y="0" type="line"/>
      <point x="346" y="0" type="line"/>
      <point x="345" y="700" type="line"/>
    </contour>
    <contour>
      <point x="94" y="75" type="line"/>
      <point x="94" y="0" type="line"/>
      <point x="516" y="0" type="line"/>
      <point x="516" y="75" type="line"/>
    </contour>
    <contour>
      <point x="124" y="700" type="line"/>
      <point x="124" y="625" type="line"/>
      <point x="346" y="625" type="line"/>
      <point x="346" y="700" type="line"/>
    </contour>
  </outline>
</glyph>
<glyph name="m" format="2">
  <advance width="610"/>
  <unicode hex="006D"/>
  <anchor x="312" y="0" name="bottom"/>
  <anchor x="300" y="580" name="top"/>
  <outline>
    <contour>
      <point x="42" y="470" type="line"/>
      <point x="41" y="0" type="line"/>
      <point x="125" y="0" type="line"/>
      <point x="123" y="367" type="line"/>
      <point x="131" y="411" type="line"/>
      <point x="94" y="470" type="line"/>
    </contour>
    <contour>
      <point x="265" y="0" type="line"/>
      <point x="346" y="0" type="line"/>
      <point x="346" y="259" type="line" smooth="yes"/>
      <point x="346" y="309"/>
      <point x="346" y="480"/>
      <point x="217" y="480" type="curve" smooth="yes"/>
      <point x="110" y="480"/>
      <point x="89" y="364"/>
      <point x="89" y="287" type="curve"/>
      <point x="123" y="216" type="line"/>
      <point x="123" y="357"/>
      <point x="158" y="408"/>
      <point x="204" y="408" type="curve" smooth="yes"/>
      <point x="258" y="408"/>
      <point x="263" y="339"/>
      <point x="263" y="272" type="curve" smooth="yes"/>
    </contour>
    <contour>
      <point x="486" y="-3" type="line"/>
      <point x="569" y="-3" type="line"/>
      <point x="569" y="269" type="line" smooth="yes"/>
      <point x="569" y="330"/>
      <point x="573" y="480"/>
      <point x="442" y="480" type="curve" smooth="yes"/>
      <point x="334" y="480"/>
      <point x="301" y="360"/>
      <point x="301" y="284" type="curve"/>
      <point x="346" y="213" type="line"/>
      <point x="346" y="354"/>
      <point x="381" y="405"/>
      <point x="427" y="405" type="curve" smooth="yes"/>
      <point x="486" y="405"/>
      <point x="486" y="323"/>
      <point x="486" y="269" type="curve" smooth="yes"/>
    </contour>
  </outline>
</glyph>
<glyph name="n" format="2">
  <advance width="610"/>
  <unicode hex="006E"/>
  <guideline x="324" y="510" angle="90"/>
  <anchor x="308" y="0" name="bottom"/>
  <anchor x="140" y="250" name="center"/>
  <anchor x="324" y="580" name="top"/>
  <outline>
    <contour>
      <point x="187" y="0" type="line"/>
      <point x="104" y="0" type="line"/>
    </contour>
    <contour>
      <point x="104" y="470" type="line"/>
      <point x="104" y="0" type="line"/>
      <point x="187" y="0" type="line"/>
      <point x="185" y="364" type="line"/>
      <point x="193" y="411" type="line"/>
      <point x="156" y="470" type="line"/>
    </contour>
    <contour>
      <point x="422" y="0" type="line"/>
      <point x="505" y="0" type="line"/>
      <point x="506" y="286" type="line" smooth="yes"/>
      <point x="506" y="401"/>
      <point x="436" y="480"/>
      <point x="330" y="480" type="curve" smooth="yes"/>
      <point x="227" y="480"/>
      <point x="144" y="405"/>
      <point x="144" y="213" type="curve"/>
      <point x="186" y="213" type="line"/>
      <point x="186" y="285"/>
      <point x="193" y="405"/>
      <point x="315" y="405" type="curve" smooth="yes"/>
      <point x="423" y="405"/>
      <point x="423" y="312"/>
      <point x="423" y="286" type="curve" smooth="yes"/>
      <point x="423" y="264" type="line"/>
    </contour>
  </outline>
</glyph>
<glyph name="o" format="2">
  <advance width="610"/>
  <unicode hex="006F"/>
  <anchor x="310" y="0" name="bottom"/>
  <anchor x="305" y="250" name="center"/>
  <anchor x="308" y="9" name="ogonek"/>
  <anchor x="305" y="580" name="top"/>
  <anchor x="600" y="500" name="topright"/>
  <outline>
    <contour>
      <point x="305" y="480" type="curve" smooth="yes"/>
      <point x="147" y="480"/>
      <point x="82" y="355"/>
      <point x="82" y="230" type="curve" smooth="yes"/>
      <point x="82" y="115"/>
      <point x="147" y="-10"/>
      <point x="305" y="-10" type="curve" smooth="yes"/>
      <point x="463" y="-10"/>
      <point x="528" y="115"/>
      <point x="528" y="230" type="curve" smooth="yes"/>
      <point x="528" y="355"/>
      <point x="463" y="480"/>
    </contour>
    <contour>
      <point x="305" y="405" type="curve" smooth="yes"/>
      <point x="395" y="405"/>
      <point x="445" y="340"/>
      <point x="445" y="230" type="curve" smooth="yes"/>
      <point x="445" y="130"/>
      <point x="395" y="65"/>
      <point x="305" y="65" type="curve" smooth="yes"/>
      <point x="215" y="65"/>
      <point x="165" y="130"/>
      <point x="165" y="230" type="curve" smooth="yes"/>
      <point x="165" y="340"/>
      <point x="215" y="405"/>
    </contour>
  </outline>
</glyph>
<glyph name="r" format="2">
  <advance width="610"/>
  <unicode hex="0072"/>
  <anchor x="211" y="0" name="bottom"/>
  <anchor x="172" y="10" name="ogonek"/>
  <anchor x="275" y="580" name="top"/>
  <outline>
    <contour>
      <point x="164" y="470" type="line"/>
      <point x="164" y="0" type="line"/>
      <point x="247" y="0" type="line"/>
      <point x="247" y="370" type="line"/>
      <point x="261" y="398" type="line"/>
      <point x="215" y="470" type="line"/>
    </contour>
    <contour>
      <point x="233" y="45" type="move"/>
    </contour>
    <contour>
      <point x="384" y="480" type="curve" smooth="yes"/>
      <point x="241" y="480"/>
      <point x="207" y="318"/>
      <point x="207" y="212" type="curve"/>
      <point x="247" y="212" type="line"/>
      <point x="247" y="294"/>
      <point x="265" y="405"/>
      <point x="376" y="405" type="curve" smooth="yes"/>
      <point x="429" y="405"/>
      <point x="450" y="380"/>
      <point x="474" y="319" type="curve"/>
      <point x="545" y="352" type="line"/>
      <point x="511" y="444"/>
      <point x="452" y="480"/>
    </contour>
    <contour>
      <point x="75" y="75" type="line"/>
      <point x="75" y="0" type="line"/>
      <point x="344" y="0" type="line"/>
      <point x="344" y="75" type="line" smooth="yes"/>
    </contour>
    <contour>
      <point x="85" y="470" type="line"/>
      <point x="85" y="395" type="line"/>
      <point x="204" y="395" type="line"/>
      <point x="204" y="470" type="line" smooth="yes"/>
    </contour>
  </outline>
</glyph>
<glyph name="t" format="2">
  <advance width="610"/>
  <unicode hex="0074"/>
  <anchor x="327" y="0" name="bottom"/>
  <anchor x="222" y="264" name="center"/>
  <anchor x="310" y="699" name="top"/>
  <anchor x="590" y="500" name="topright"/>
  <outline>
    <contour>
      <point x="456" y="154" type="line"/>
      <point x="436" y="104"/>
      <point x="417" y="65"/>
      <point x="352" y="65" type="curve" smooth="yes"/>
      <point x="260" y="65"/>
      <point x="260" y="145"/>
      <point x="260" y="184" type="curve" smooth="yes"/>
      <point x="260" y="638" type="line"/>
      <point x="177" y="638" type="line"/>
      <point x="177" y="171" type="line" smooth="yes"/>
      <point x="177" y="57"/>
      <point x="241" y="-10"/>
      <point x="351" y="-10" type="curve" smooth="yes"/>
      <point x="442" y="-10"/>
      <point x="497" y="36"/>
      <point x="526" y="119" type="curve"/>
    </contour>
    <contour>
      <point x="51" y="395" type="line" smooth="yes"/>
      <point x="503" y="395" type="line" smooth="yes"/>
      <point x="503" y="470" type="line" smooth="yes"/>
      <point x="51" y="470" type="line" smooth="yes"/>
    </contour>
    <contour>
      <point x="456" y="154" type="line"/>
      <point x="436" y="104"/>
      <point x="417" y="65"/>
      <point x="352" y="65" type="curve" smooth="yes"/>
      <point x="260" y="65"/>
      <point x="260" y="145"/>
      <point x="260" y="184" type="curve" smooth="yes"/>
      <point x="260" y="638" type="line"/>
      <point x="177" y="638" type="line"/>
      <point x="177" y="171" type="line" smooth="yes"/>
      <point x="177" y="57"/>
      <point x="241" y="-10"/>
      <point x="351" y="-10" type="curve" smooth="yes"/>
      <point x="442" y="-10"/>
      <point x="497" y="36"/>
      <point x="526" y="119" type="curve"/>
    </contour>
    <contour>
      <point x="51" y="395" type="line" smooth="yes"/>
      <point x="503" y="395" type="line" smooth="yes"/>
      <point x="503" y="470" type="line" smooth="yes"/>
      <point x="51" y="470" type="line" smooth="yes"/>
    </contour>
  </outline>
</glyph>
<glyph name="u" format="2">
  <advance width="610"/>
  <unicode hex="0075"/>
  <anchor x="292" y="240" name="center"/>
  <anchor x="350" y="10" name="ogonek"/>
  <anchor x="300" y="580" name="top"/>
  <outline>
    <contour>
      <point x="424" y="470" type="line"/>
      <point x="507" y="470" type="line"/>
    </contour>
    <contour>
      <point x="507" y="0" type="line"/>
      <point x="507" y="470" type="line"/>
      <point x="424" y="470" type="line"/>
      <point x="425" y="106" type="line"/>
      <point x="417" y="89" type="line"/>
      <point x="454" y="0" type="line"/>
    </contour>
    <contour>
      <point x="187" y="470" type="line"/>
      <point x="104" y="470" type="line"/>
      <point x="104" y="184" type="line" smooth="yes"/>
      <point x="104" y="91"/>
      <point x="156" y="-10"/>
      <point x="278" y="-10" type="curve" smooth="yes"/>
      <point x="383" y="-10"/>
      <point x="466" y="65"/>
      <point x="466" y="257" type="curve"/>
      <point x="425" y="257" type="line"/>
      <point x="425" y="186"/>
      <point x="417" y="65"/>
      <point x="295" y="65" type="curve" smooth="yes"/>
      <point x="207" y="65"/>
      <point x="187" y="129"/>
      <point x="187" y="184" type="curve" smooth="yes"/>
    </contour>
  </outline>
</glyph>
<glyph name="v" format="2">
  <advance width="610"/>
  <unicode hex="0076"/>
  <anchor x="305" y="0" name="bottom"/>
  <anchor x="305" y="580" name="top"/>
  <outline>
    <contour>
      <point x="443" y="470" type="line"/>
      <point x="292" y="89" type="line"/>
      <point x="319" y="89" type="line"/>
      <point x="168" y="470" type="line"/>
      <point x="79" y="470" type="line"/>
      <point x="276" y="0" type="line"/>
      <point x="335" y="0" type="line"/>
      <point x="532" y="470" type="line"/>
    </contour>
  </outline>
</glyph>
<glyph name="w" format="2">
  <advance width="610"/>
  <unicode hex="0077"/>
  <guideline x="307" y="126" angle="0"/>
  <anchor x="305" y="0" name="bottom"/>
  <anchor x="305" y="580" name="top"/>
  <outline>
    <contour>
      <point x="492" y="471" type="line"/>
      <point x="411" y="55" type="line"/>
      <point x="437" y="86" type="line"/>
      <point x="331" y="390" type="line"/>
      <point x="278" y="390" type="line"/>
      <point x="172" y="86" type="line"/>
      <point x="197" y="55" type="line"/>
      <point x="117" y="470" type="line"/>
      <point x="31" y="469" type="line"/>
      <point x="138" y="0" type="line"/>
      <point x="202" y="0" type="line"/>
      <point x="324" y="317" type="line"/>
      <point x="284" y="317" type="line"/>
      <point x="407" y="0" type="line"/>
      <point x="471" y="0" type="line"/>
      <point x="578" y="470" type="line"/>
    </contour>
  </outline>
</glyph>
<glyph name="x" format="2">
  <advance width="610"/>
  <unicode hex="0078"/>
  <anchor x="305" y="0" name="bottom"/>
  <anchor x="305" y="580" name="top"/>
  <outline>
    <contour>
      <point x="540" y="470" type="line"/>
      <point x="442" y="470" type="line"/>
      <point x="280" y="253" type="line"/>
      <point x="333" y="254" type="line"/>
      <point x="168" y="470" type="line"/>
      <point x="70" y="470" type="line"/>
      <point x="278" y="210" type="line"/>
      <point x="277" y="283" type="line"/>
      <point x="70" y="0" type="line"/>
      <point x="167" y="0" type="line"/>
      <point x="330" y="235" type="line"/>
      <point x="278" y="235" type="line"/>
      <point x="443" y="0" type="line"/>
      <point x="540" y="0" type="line"/>
      <point x="332" y="280" type="line"/>
      <point x="332" y="207" type="line"/>
    </contour>
  </outline>
</glyph>
<glyph name="y" format="2">
  <advance width="610"/>
  <unicode hex="0079"/>
  <anchor x="281" y="0" name="bottom"/>
  <anchor x="306" y="580" name="top"/>
  <outline>
    <contour>
      <point x="462" y="470" type="line"/>
      <point x="290" y="58" type="line"/>
      <point x="315" y="57" type="line"/>
      <point x="151" y="470" type="line"/>
      <point x="56" y="470" type="line"/>
      <point x="272" y="-27" type="line"/>
      <point x="269" y="37" type="line"/>
      <point x="161" y="-230" type="line"/>
      <point x="249" y="-230" type="line"/>
      <point x="551" y="470" type="line"/>
    </contour>
  </outline>
</glyph>
<glyph name="z" format="2">
  <advance width="610"/>
  <unicode hex="007A"/>
  <guideline x="94" y="219" angle="270"/>
  <guideline x="499" y="518" angle="270"/>
  <anchor x="305" y="0" name="bottom"/>
  <anchor x="305" y="580" name="top"/>
  <outline>
    <contour>
      <point x="162" y="9" type="line"/>
      <point x="507" y="421" type="line"/>
      <point x="507" y="470" type="line"/>
      <point x="112" y="470" type="line"/>
      <point x="112" y="395" type="line"/>
      <point x="441" y="397" type="line"/>
      <point x="451" y="466" type="line"/>
      <point x="102" y="49" type="line"/>
      <point x="102" y="0" type="line"/>
      <point x="514" y="0" type="line"/>
      <point x="514" y="75" type="line"/>
      <point x="167" y="73" type="line"/>
    </contour>
  </outline>
</glyph>
<glyph name="braceleft" format="2">
  <advance width="610"/>
  <unicode hex="007B"/>
  <outline>
    <contour>
      <point x="162" y="281" type="line"/>
      <point x="191" y="250"/>
      <point x="224" y="231"/>
      <point x="224" y="147" type="curve" smooth="yes"/>
      <point x="224" y="58" type="line" smooth="yes"/>
      <point x="224" y="-65"/>
      <point x="287" y="-138"/>
      <point x="371" y="-163" type="curve"/>
      <point x="400" y="-92" type="line"/>
      <point x="336" y="-68"/>
      <point x="309" y="-28"/>
      <point x="309" y="73" type="curve" smooth="yes"/>
      <point x="309" y="147" type="line" smooth="yes"/>
      <point x="309" y="224"/>
      <point x="268" y="279"/>
      <point x="229" y="316" type="curve"/>
      <point x="229" y="278" type="line"/>
      <point x="268" y="315"/>
      <point x="309" y="370"/>
      <point x="309" y="447" type="curve" smooth="yes"/>
      <point x="309" y="521" type="line" smooth="yes"/>
      <point x="309" y="622"/>
      <point x="336" y="662"/>
      <point x="400" y="686" type="curve"/>
      <point x="371" y="757" type="line"/>
      <point x="287" y="732"/>
      <point x="224" y="659"/>
      <point x="224" y="536" type="curve" smooth="yes"/>
      <point x="224" y="447" type="line" smooth="yes"/>
      <point x="224" y="363"/>
      <point x="191" y="344"/>
      <point x="162" y="313" type="curve"/>
      <point x="161" y="297" type="line"/>
    </contour>
  </outline>
</glyph>
<glyph name="bar" format="2">
  <advance width="610"/>
  <unicode hex="007C"/>
  <outline>
    <contour>
      <point x="262" y="700" type="line"/>
      <point x="262" y="-200" type="line"/>
      <point x="347" y="-200" type="line"/>
      <point x="347" y="700" type="line"/>
    </contour>
  </outline>
</glyph>
<glyph name="braceright" format="2">
  <advance width="610"/>
  <unicode hex="007D"/>
  <guideline x="229" y="-164" angle="0"/>
  <outline>
    <contour>
      <point x="438" y="281" type="curve"/>
      <point x="439" y="297" type="line"/>
      <point x="438" y="313" type="line"/>
      <point x="409" y="344"/>
      <point x="376" y="363"/>
      <point x="376" y="447" type="curve" smooth="yes"/>
      <point x="376" y="536" type="line" smooth="yes"/>
      <point x="376" y="659"/>
      <point x="313" y="732"/>
      <point x="229" y="757" type="curve"/>
      <point x="200" y="686" type="line"/>
      <point x="264" y="662"/>
      <point x="291" y="622"/>
      <point x="291" y="521" type="curve" smooth="yes"/>
      <point x="291" y="447" type="line" smooth="yes"/>
      <point x="291" y="370"/>
      <point x="332" y="315"/>
      <point x="371" y="278" type="curve"/>
      <point x="371" y="316" type="line"/>
      <point x="332" y="279"/>
      <point x="291" y="224"/>
      <point x="291" y="147" type="curve" smooth="yes"/>
      <point x="291" y="73" type="line" smooth="yes"/>
      <point x="291" y="-28"/>
      <point x="264" y="-68"/>
      <point x="200" y="-92" type="curve"/>
      <point x="229" y="-163" type="line"/>
      <point x="313" y="-138"/>
      <point x="376" y="-65"/>
      <point x="376" y="58" type="curve" smooth="yes"/>
      <point x="376" y="147" type="line" smooth="yes"/>
      <point x="376" y="231"/>
      <point x="409" y="250"/>
    </contour>
  </outline>
</glyph>
<glyph name="cent" format="2">
  <advance width="610"/>
  <unicode hex="00A2"/>
  <outline>
    <contour>
      <point x="273" y="700" type="line"/>
      <point x="274" y="561" type="line"/>
      <point x="357" y="561" type="line"/>
      <point x="358" y="700" type="line"/>
    </contour>
    <contour>
      <point x="274" y="129" type="line"/>
      <point x="273" y="0" type="line"/>
      <point x="358" y="0" type="line"/>
      <point x="357" y="129" type="line"/>
    </contour>
    <component base="c" yOffset="100" identifier="3DD881C9"/>
  </outline>
</glyph>
<glyph name="sterling" format="2">
  <advance width="610"/>
  <unicode hex="00A3"/>
  <outline>
    <contour>
      <point x="95" y="77" type="curve"/>
      <point x="95" y="30" type="line"/>
      <point x="185" y="70"/>
      <point x="311" y="135"/>
      <point x="311" y="273" type="curve" smooth="yes"/>
      <point x="311" y="392"/>
      <point x="232" y="433"/>
      <point x="232" y="522" type="curve" smooth="yes"/>
      <point x="232" y="592"/>
      <point x="266" y="633"/>
      <point x="337" y="633" type="curve" smooth="yes"/>
      <point x="399" y="633"/>
      <point x="411" y="614"/>
      <point x="443" y="575" type="curve"/>
      <point x="505" y="629" type="line"/>
      <point x="469" y="673"/>
      <point x="430" y="710"/>
      <point x="339" y="710" type="curve" smooth="yes"/>
      <point x="223" y="710"/>
      <point x="147" y="639"/>
      <point x="147" y="522" type="curve" smooth="yes"/>
      <point x="147" y="403"/>
      <point x="226" y="372"/>
      <point x="226" y="273" type="curve" smooth="yes"/>
      <point x="226" y="180"/>
      <point x="156" y="123"/>
    </contour>
    <contour>
      <point x="95" y="77" type="line"/>
      <point x="95" y="0" type="line"/>
      <point x="528" y="0" type="line"/>
      <point x="528" y="77" type="line"/>
    </contour>
    <contour>
      <point x="437" y="354" type="line"/>
      <point x="117" y="354" type="line"/>
      <point x="117" y="277" type="line"/>
      <point x="437" y="277" type="line"/>
    </contour>
  </outline>
</glyph>
<glyph name="yen" format="2">
  <advance width="610"/>
  <unicode hex="00A5"/>
  <outline>
    <contour>
      <point x="465" y="301" type="line"/>
      <point x="145" y="301" type="line"/>
      <point x="145" y="226" type="line"/>
      <point x="465" y="226" type="line"/>
    </contour>
    <contour>
      <point x="465" y="181" type="line"/>
      <point x="145" y="181" type="line"/>
      <point x="145" y="106" type="line"/>
      <point x="465" y="106" type="line"/>
    </contour>
    <component base="Y"/>
  </outline>
</glyph>
<glyph name="brokenbar" format="2">
  <advance width="610"/>
  <unicode hex="00A6"/>
  <outline>
    <contour>
      <point x="262" y="700" type="line"/>
      <point x="262" y="356" type="line"/>
      <point x="347" y="356" type="line"/>
      <point x="347" y="700" type="line"/>
    </contour>
    <contour>
      <point x="262" y="144" type="line"/>
      <point x="262" y="-200" type="line"/>
      <point x="347" y="-200" type="line"/>
      <point x="347" y="144" type="line"/>
    </contour>
  </outline>
</glyph>
<glyph name="section" format="2">
  <advance width="610"/>
  <unicode hex="00A7"/>
  <outline>
    <contour>
      <point x="292" y="382" type="curve" smooth="yes"/>
      <point x="368" y="365"/>
      <point x="441" y="362"/>
      <point x="441" y="289" type="curve" smooth="yes"/>
      <point x="441" y="211"/>
      <point x="361" y="213"/>
      <point x="265" y="234" type="curve"/>
      <point x="262" y="203" type="line"/>
      <point x="408" y="147"/>
      <point x="526" y="191"/>
      <point x="526" y="289" type="curve" smooth="yes"/>
      <point x="526" y="424"/>
      <point x="406" y="432"/>
      <point x="292" y="462" type="curve" smooth="yes"/>
      <point x="223" y="480"/>
      <point x="201" y="511"/>
      <point x="201" y="553" type="curve" smooth="yes"/>
      <point x="201" y="593"/>
      <point x="242" y="631"/>
      <point x="309" y="631" type="curve" smooth="yes"/>
      <point x="373" y="631"/>
      <point x="411" y="597"/>
      <point x="430" y="508" type="curve"/>
      <point x="508" y="534" type="line"/>
      <point x="490" y="649"/>
      <point x="407" y="708"/>
      <point x="309" y="708" type="curve" smooth="yes"/>
      <point x="204" y="708"/>
      <point x="117" y="646"/>
      <point x="117" y="553" type="curve" smooth="yes"/>
      <point x="117" y="452"/>
      <point x="191" y="405"/>
    </contour>
    <contour>
      <point x="319" y="223" type="curve" smooth="yes"/>
      <point x="243" y="240"/>
      <point x="170" y="243"/>
      <point x="170" y="316" type="curve" smooth="yes"/>
      <point x="170" y="394"/>
      <point x="250" y="392"/>
      <point x="346" y="371" type="curve"/>
      <point x="349" y="402" type="line"/>
      <point x="203" y="458"/>
      <point x="85" y="414"/>
      <point x="85" y="316" type="curve" smooth="yes"/>
      <point x="85" y="181"/>
      <point x="205" y="173"/>
      <point x="319" y="143" type="curve" smooth="yes"/>
      <point x="388" y="125"/>
      <point x="410" y="94"/>
      <point x="410" y="52" type="curve" smooth="yes"/>
      <point x="410" y="12"/>
      <point x="369" y="-26"/>
      <point x="302" y="-26" type="curve" smooth="yes"/>
      <point x="238" y="-26"/>
      <point x="200" y="8"/>
      <point x="181" y="97" type="curve"/>
      <point x="103" y="71" type="line"/>
      <point x="121" y="-44"/>
      <point x="204" y="-103"/>
      <point x="302" y="-103" type="curve" smooth="yes"/>
      <point x="407" y="-103"/>
      <point x="494" y="-41"/>
      <point x="494" y="52" type="curve" smooth="yes"/>
      <point x="494" y="153"/>
      <point x="420" y="200"/>
    </contour>
  </outline>
</glyph>
<glyph name="copyright" format="2">
  <advance width="610"/>
  <unicode hex="00A9"/>
  <guideline x="292" y="490" angle="0"/>
  <anchor x="295.688" y="493" name="bottom"/>
  <anchor x="288.659" y="737.495" name="top"/>
  <outline>
    <contour>
      <point x="296" y="439" type="curve" smooth="yes"/>
      <point x="384" y="439"/>
      <point x="456" y="511"/>
      <point x="456" y="600" type="curve" smooth="yes"/>
      <point x="456" y="689"/>
      <point x="384" y="761"/>
      <point x="296" y="761" type="curve" smooth="yes"/>
      <point x="207" y="761"/>
      <point x="135" y="689"/>
      <point x="135" y="600" type="curve" smooth="yes"/>
      <point x="135" y="511"/>
      <point x="207" y="439"/>
    </contour>
    <contour>
      <point x="296" y="393" type="curve" smooth="yes"/>
      <point x="182" y="393"/>
      <point x="89" y="486"/>
      <point x="89" y="600" type="curve" smooth="yes"/>
      <point x="89" y="714"/>
      <point x="182" y="807"/>
      <point x="296" y="807" type="curve" smooth="yes"/>
      <point x="409" y="807"/>
      <point x="502" y="714"/>
      <point x="502" y="600" type="curve" smooth="yes"/>
      <point x="502" y="486"/>
      <point x="409" y="393"/>
    </contour>
    <contour>
      <point x="301" y="531" type="curve" smooth="yes"/>
      <point x="270" y="531"/>
      <point x="252" y="560"/>
      <point x="252" y="600" type="curve" smooth="yes"/>
      <point x="252" y="640"/>
      <point x="270" y="668"/>
      <point x="301" y="668" type="curve" smooth="yes"/>
      <point x="322" y="668"/>
      <point x="332" y="653"/>
      <point x="343" y="631" type="curve"/>
      <point x="384" y="638" type="line"/>
      <point x="373" y="682"/>
      <point x="342" y="710"/>
      <point x="301" y="710" type="curve" smooth="yes"/>
      <point x="243" y="710"/>
      <point x="206" y="663"/>
      <point x="206" y="600" type="curve" smooth="yes"/>
      <point x="206" y="537"/>
      <point x="243" y="490"/>
      <point x="301" y="490" type="curve" smooth="yes"/>
      <point x="342" y="490"/>
      <point x="373" y="518"/>
      <point x="384" y="561" type="curve"/>
      <point x="343" y="579" type="line"/>
      <point x="332" y="546"/>
      <point x="322" y="531"/>
    </contour>
  </outline>
</glyph>
<glyph name="ordfeminine" format="2">
  <advance width="610"/>
  <unicode hex="00AA"/>
  <guideline x="287" y="486" angle="0"/>
  <outline>
    <contour>
      <point x="377" y="453" type="line"/>
      <point x="377" y="401" type="line"/>
      <point x="463" y="401" type="line"/>
      <point x="463" y="453" type="line"/>
    </contour>
    <contour>
      <point x="293" y="713" type="curve" smooth="yes"/>
      <point x="230" y="713"/>
      <point x="184" y="686"/>
      <point x="162" y="629" type="curve"/>
      <point x="213" y="603" type="line"/>
      <point x="227" y="642"/>
      <point x="253" y="662"/>
      <point x="292" y="662" type="curve" smooth="yes"/>
      <point x="332" y="662"/>
      <point x="356" y="636"/>
      <point x="356" y="604" type="curve" smooth="yes"/>
      <point x="356" y="573" type="line"/>
      <point x="356" y="441" type="line"/>
      <point x="378" y="401" type="line"/>
      <point x="417" y="401" type="line"/>
      <point x="417" y="580" type="line"/>
      <point x="417" y="605" type="line" smooth="yes"/>
      <point x="417" y="672"/>
      <point x="368" y="713"/>
    </contour>
    <contour>
      <point x="208" y="483" type="curve" smooth="yes"/>
      <point x="208" y="557"/>
      <point x="397" y="491"/>
      <point x="394" y="605" type="curve"/>
      <point x="356" y="605" type="line"/>
      <point x="356" y="535"/>
      <point x="148" y="597"/>
      <point x="148" y="478" type="curve" smooth="yes"/>
      <point x="148" y="418"/>
      <point x="191" y="394"/>
      <point x="262" y="394" type="curve" smooth="yes"/>
      <point x="339" y="394"/>
      <point x="384" y="439"/>
      <point x="383" y="516" type="curve"/>
      <point x="356" y="516" type="line"/>
      <point x="360" y="498"/>
      <point x="341" y="445"/>
      <point x="268" y="445" type="curve" smooth="yes"/>
      <point x="239" y="445"/>
      <point x="208" y="454"/>
    </contour>
  </outline>
</glyph>
<glyph name="registered" format="2">
  <advance width="610"/>
  <unicode hex="00AE"/>
  <outline>
    <contour>
      <point x="296" y="439" type="curve" smooth="yes"/>
      <point x="384" y="439"/>
      <point x="456" y="511"/>
      <point x="456" y="600" type="curve" smooth="yes"/>
      <point x="456" y="689"/>
      <point x="384" y="761"/>
      <point x="296" y="761" type="curve" smooth="yes"/>
      <point x="207" y="761"/>
      <point x="135" y="689"/>
      <point x="135" y="600" type="curve" smooth="yes"/>
      <point x="135" y="511"/>
      <point x="207" y="439"/>
    </contour>
    <contour>
      <point x="296" y="393" type="curve" smooth="yes"/>
      <point x="182" y="393"/>
      <point x="89" y="486"/>
      <point x="89" y="600" type="curve" smooth="yes"/>
      <point x="89" y="714"/>
      <point x="182" y="807"/>
      <point x="296" y="807" type="curve" smooth="yes"/>
      <point x="409" y="807"/>
      <point x="502" y="714"/>
      <point x="502" y="600" type="curve" smooth="yes"/>
      <point x="502" y="486"/>
      <point x="409" y="393"/>
    </contour>
    <contour>
      <point x="379" y="639" type="curve" smooth="yes"/>
      <point x="379" y="676"/>
      <point x="351" y="705"/>
      <point x="314" y="705" type="curve" smooth="yes"/>
      <point x="222" y="705" type="line"/>
      <point x="222" y="495" type="line"/>
      <point x="268" y="495" type="line"/>
      <point x="268" y="579" type="line"/>
      <point x="257" y="572" type="line"/>
      <point x="315" y="572" type="line"/>
      <point x="284" y="585" type="line"/>
      <point x="332" y="495" type="line"/>
      <point x="384" y="495" type="line"/>
      <point x="328" y="586" type="line"/>
      <point x="297" y="573" type="line"/>
      <point x="343" y="573"/>
      <point x="379" y="596"/>
    </contour>
    <contour>
      <point x="257" y="664" type="line"/>
      <point x="310" y="664" type="line" smooth="yes"/>
      <point x="325" y="664"/>
      <point x="334" y="653"/>
      <point x="334" y="639" type="curve" smooth="yes"/>
      <point x="334" y="624"/>
      <point x="326" y="613"/>
      <point x="310" y="613" type="curve" smooth="yes"/>
      <point x="257" y="613" type="line"/>
      <point x="268" y="606" type="line"/>
      <point x="268" y="671" type="line"/>
    </contour>
  </outline>
</glyph>
<glyph name="degree" format="2">
  <advance width="610"/>
  <unicode hex="00B0"/>
  <outline>
    <contour>
      <point x="308" y="444" type="curve" smooth="yes"/>
      <point x="381" y="444"/>
      <point x="441" y="504"/>
      <point x="441" y="577" type="curve" smooth="yes"/>
      <point x="441" y="650"/>
      <point x="381" y="710"/>
      <point x="308" y="710" type="curve" smooth="yes"/>
      <point x="235" y="710"/>
      <point x="175" y="650"/>
      <point x="175" y="577" type="curve" smooth="yes"/>
      <point x="175" y="504"/>
      <point x="235" y="444"/>
    </contour>
    <contour>
      <point x="308" y="519" type="curve" smooth="yes"/>
      <point x="280" y="519"/>
      <point x="258" y="545"/>
      <point x="258" y="577" type="curve" smooth="yes"/>
      <point x="258" y="609"/>
      <point x="280" y="635"/>
      <point x="308" y="635" type="curve" smooth="yes"/>
      <point x="336" y="635"/>
      <point x="358" y="609"/>
      <point x="358" y="577" type="curve" smooth="yes"/>
      <point x="358" y="545"/>
      <point x="336" y="519"/>
    </contour>
  </outline>
</glyph>
<glyph name="plusminus" format="2">
  <advance width="610"/>
  <unicode hex="00B1"/>
  <outline>
    <contour>
      <point x="525" y="135" type="line"/>
      <point x="75" y="135" type="line"/>
      <point x="76" y="58" type="line"/>
      <point x="525" y="58" type="line"/>
    </contour>
    <contour>
      <point x="525" y="395" type="line"/>
      <point x="75" y="395" type="line"/>
      <point x="76" y="318" type="line"/>
      <point x="525" y="318" type="line"/>
    </contour>
    <contour>
      <point x="343" y="192" type="line"/>
      <point x="343" y="532" type="line"/>
      <point x="258" y="531" type="line"/>
      <point x="258" y="192" type="line"/>
    </contour>
  </outline>
</glyph>
<glyph name="uni00B5" format="2">
  <advance width="610"/>
  <unicode hex="00B5"/>
  <anchor x="300" y="0" name="bottom"/>
  <anchor x="300" y="500" name="top"/>
  <outline>
    <contour>
      <point x="108" y="470" type="line"/>
      <point x="108" y="-230" type="line"/>
      <point x="191" y="-230" type="line"/>
      <point x="188" y="96" type="line"/>
      <point x="160" y="220" type="line"/>
      <point x="190" y="470" type="line"/>
    </contour>
    <component base="u" xOffset="3"/>
  </outline>
</glyph>
<glyph name="paragraph" format="2">
  <advance width="610"/>
  <unicode hex="00B6"/>
  <outline>
    <contour>
      <point x="349" y="667" type="line"/>
      <point x="264" y="667" type="line"/>
      <point x="264" y="-101" type="line"/>
      <point x="349" y="-101" type="line"/>
    </contour>
    <contour>
      <point x="223" y="292" type="curve" smooth="yes"/>
      <point x="318" y="292" type="line"/>
      <point x="318" y="369" type="line"/>
      <point x="230" y="369" type="line" smooth="yes"/>
      <point x="148" y="369"/>
      <point x="125" y="455"/>
      <point x="125" y="496" type="curve" smooth="yes"/>
      <point x="125" y="537"/>
      <point x="148" y="623"/>
      <point x="230" y="623" type="curve" smooth="yes"/>
      <point x="348" y="623" type="line"/>
      <point x="348" y="700" type="line"/>
      <point x="223" y="700" type="line" smooth="yes"/>
      <point x="115" y="700"/>
      <point x="40" y="603"/>
      <point x="40" y="496" type="curve" smooth="yes"/>
      <point x="40" y="389"/>
      <point x="115" y="292"/>
    </contour>
    <contour>
      <point x="517" y="-101" type="line"/>
      <point x="517" y="700" type="line"/>
      <point x="432" y="700" type="line"/>
      <point x="432" y="-101" type="line"/>
    </contour>
  </outline>
</glyph>
<glyph name="periodcentered" format="2">
  <advance width="610"/>
  <unicode hex="00B7"/>
  <outline>
    <contour>
      <point x="258" y="333" type="line"/>
      <point x="258" y="250" type="line"/>
      <point x="341" y="250" type="line"/>
      <point x="341" y="333" type="line"/>
    </contour>
  </outline>
</glyph>
<glyph name="cedilla" format="2">
  <advance width="610"/>
  <unicode hex="00B8"/>
  <anchor x="309" y="0" name="new anchor"/>
  <outline>
    <contour>
      <point x="301" y="-29" type="curve"/>
      <point x="284" y="-63" type="line"/>
      <point x="344" y="0" type="line"/>
      <point x="282" y="34" type="line"/>
      <point x="232" y="-38" type="line"/>
      <point x="232" y="-69" type="line"/>
      <point x="274" y="-69"/>
      <point x="303" y="-76"/>
      <point x="303" y="-109" type="curve"/>
      <point x="303" y="-144"/>
      <point x="253" y="-148"/>
      <point x="223" y="-133" type="curve"/>
      <point x="199" y="-200" type="line"/>
      <point x="289" y="-239"/>
      <point x="385" y="-194"/>
      <point x="385" y="-114" type="curve" smooth="yes"/>
      <point x="385" y="-61"/>
      <point x="344" y="-33"/>
    </contour>
  </outline>
</glyph>
<glyph name="ordmasculine" format="2">
  <advance width="610"/>
  <unicode hex="00BA"/>
  <outline>
    <contour>
      <point x="290" y="394" type="curve" smooth="yes"/>
      <point x="398" y="394"/>
      <point x="445" y="474"/>
      <point x="445" y="556" type="curve" smooth="yes"/>
      <point x="445" y="632"/>
      <point x="398" y="713"/>
      <point x="290" y="713" type="curve" smooth="yes"/>
      <point x="182" y="713"/>
      <point x="135" y="632"/>
      <point x="135" y="556" type="curve" smooth="yes"/>
      <point x="135" y="474"/>
      <point x="182" y="394"/>
    </contour>
    <contour>
      <point x="290" y="446" type="curve" smooth="yes"/>
      <point x="232" y="446"/>
      <point x="197" y="485"/>
      <point x="197" y="556" type="curve" smooth="yes"/>
      <point x="197" y="622"/>
      <point x="233" y="661"/>
      <point x="290" y="661" type="curve" smooth="yes"/>
      <point x="347" y="661"/>
      <point x="383" y="622"/>
      <point x="383" y="556" type="curve" smooth="yes"/>
      <point x="383" y="485"/>
      <point x="348" y="446"/>
    </contour>
  </outline>
</glyph>
<glyph name="AE" format="2">
  <advance width="610"/>
  <unicode hex="00C6"/>
  <anchor x="303" y="800" name="top"/>
  <outline>
    <contour>
      <point x="294" y="75" type="line"/>
      <point x="294" y="0" type="line"/>
      <point x="567" y="0" type="line"/>
      <point x="567" y="75" type="line"/>
    </contour>
    <contour>
      <point x="294" y="700" type="line"/>
      <point x="294" y="0" type="line"/>
      <point x="377" y="0" type="line"/>
      <point x="377" y="700" type="line"/>
    </contour>
    <contour>
      <point x="294" y="700" type="line"/>
      <point x="294" y="625" type="line"/>
      <point x="557" y="625" type="line"/>
      <point x="557" y="700" type="line"/>
    </contour>
    <contour>
      <point x="294" y="406" type="line"/>
      <point x="294" y="331" type="line"/>
      <point x="507" y="331" type="line"/>
      <point x="507" y="406" type="line"/>
    </contour>
    <contour>
      <point x="127" y="296" type="line"/>
      <point x="127" y="221" type="line"/>
      <point x="365" y="221" type="line"/>
      <point x="365" y="296" type="line"/>
    </contour>
    <contour>
      <point x="119" y="0" type="line"/>
      <point x="294" y="598" type="line"/>
      <point x="294" y="700" type="line"/>
      <point x="250" y="700" type="line"/>
      <point x="33" y="0" type="line"/>
    </contour>
  </outline>
</glyph>
<glyph name="multiply" format="2">
  <advance width="610"/>
  <unicode hex="00D7"/>
  <outline>
    <contour>
      <point x="493" y="148" type="line"/>
      <point x="175" y="466" type="line"/>
      <point x="118" y="408" type="line"/>
      <point x="435" y="90" type="line"/>
    </contour>
    <contour>
      <point x="118" y="148" type="line"/>
      <point x="176" y="90" type="line"/>
      <point x="493" y="408" type="line"/>
      <point x="436" y="466" type="line"/>
    </contour>
  </outline>
</glyph>
<glyph name="Thorn" format="2">
  <advance width="610"/>
  <unicode hex="00DE"/>
  <guideline x="543" y="350" angle="0"/>
  <anchor x="305" y="0" name="bottom"/>
  <anchor x="305" y="700" name="top"/>
  <outline>
    <contour>
      <point x="67" y="0" type="line"/>
      <point x="152" y="0" type="line"/>
      <point x="152" y="700" type="line"/>
      <point x="67" y="700" type="line"/>
    </contour>
    <contour>
      <point x="67" y="0" type="line"/>
      <point x="152" y="0" type="line"/>
      <point x="152" y="700" type="line"/>
      <point x="67" y="700" type="line"/>
    </contour>
    <contour>
      <point x="337" y="554" type="curve" smooth="yes"/>
      <point x="105" y="554" type="line"/>
      <point x="105" y="477" type="line"/>
      <point x="328" y="477" type="line" smooth="yes"/>
      <point x="443" y="477"/>
      <point x="458" y="399"/>
      <point x="458" y="350" type="curve" smooth="yes"/>
      <point x="458" y="301"/>
      <point x="443" y="223"/>
      <point x="328" y="223" type="curve" smooth="yes"/>
      <point x="105" y="223" type="line"/>
      <point x="105" y="146" type="line"/>
      <point x="337" y="146" type="line" smooth="yes"/>
      <point x="483" y="146"/>
      <point x="543" y="250"/>
      <point x="543" y="350" type="curve" smooth="yes"/>
      <point x="543" y="450"/>
      <point x="483" y="554"/>
    </contour>
  </outline>
</glyph>
<glyph name="germandbls" format="2">
  <advance width="610"/>
  <unicode hex="00DF"/>
  <outline>
    <contour>
      <point x="394" y="402" type="curve"/>
      <point x="394" y="374" type="line"/>
      <point x="459" y="395"/>
      <point x="501" y="448"/>
      <point x="501" y="525" type="curve" smooth="yes"/>
      <point x="501" y="630"/>
      <point x="421" y="700"/>
      <point x="297" y="700" type="curve" smooth="yes"/>
      <point x="197" y="700"/>
      <point x="83" y="654"/>
      <point x="83" y="456" type="curve" smooth="yes"/>
      <point x="83" y="-200" type="line"/>
      <point x="166" y="-200" type="line"/>
      <point x="166" y="466" type="line" smooth="yes"/>
      <point x="166" y="602"/>
      <point x="240" y="625"/>
      <point x="301" y="625" type="curve" smooth="yes"/>
      <point x="382" y="625"/>
      <point x="418" y="578"/>
      <point x="418" y="522" type="curve" smooth="yes"/>
      <point x="418" y="484"/>
      <point x="400" y="418"/>
      <point x="318" y="418" type="curve" smooth="yes"/>
      <point x="271" y="418" type="line"/>
      <point x="271" y="343" type="line"/>
      <point x="295" y="343" type="line" smooth="yes"/>
      <point x="402" y="343"/>
      <point x="442" y="270"/>
      <point x="442" y="209" type="curve" smooth="yes"/>
      <point x="442" y="171"/>
      <point x="424" y="77"/>
      <point x="311" y="77" type="curve" smooth="yes"/>
      <point x="271" y="77" type="line"/>
      <point x="271" y="0" type="line"/>
      <point x="325" y="0" type="line" smooth="yes"/>
      <point x="453" y="0"/>
      <point x="525" y="105"/>
      <point x="525" y="209" type="curve" smooth="yes"/>
      <point x="525" y="297"/>
      <point x="473" y="362"/>
    </contour>
  </outline>
</glyph>
<glyph name="ae" format="2">
  <advance width="610"/>
  <unicode hex="00E6"/>
  <outline>
    <contour>
      <point x="278" y="-10" type="curve" smooth="yes"/>
      <point x="454" y="-10"/>
      <point x="507" y="46"/>
      <point x="538" y="118" type="curve"/>
      <point x="468" y="154" type="line"/>
      <point x="443" y="91"/>
      <point x="427" y="68"/>
      <point x="276" y="65" type="curve" smooth="yes"/>
      <point x="201" y="63"/>
      <point x="131" y="68"/>
      <point x="131" y="134" type="curve" smooth="yes"/>
      <point x="131" y="237"/>
      <point x="300" y="166"/>
      <point x="300" y="327" type="curve"/>
      <point x="258" y="327" type="line"/>
      <point x="258" y="223"/>
      <point x="48" y="303"/>
      <point x="48" y="134" type="curve" smooth="yes"/>
      <point x="48" y="32"/>
      <point x="125" y="-10"/>
    </contour>
    <contour>
      <point x="258" y="29" type="line"/>
      <point x="341" y="29" type="line"/>
      <point x="341" y="416" type="line"/>
      <point x="258" y="416" type="line"/>
    </contour>
    <contour>
      <point x="550" y="213" type="line"/>
      <point x="551" y="235" type="line" smooth="yes"/>
      <point x="558" y="386"/>
      <point x="470" y="484"/>
      <point x="288" y="479" type="curve" smooth="yes"/>
      <point x="179" y="476"/>
      <point x="105" y="440"/>
      <point x="65" y="352" type="curve"/>
      <point x="135" y="316" type="line"/>
      <point x="171" y="376"/>
      <point x="198" y="402"/>
      <point x="288" y="404" type="curve" smooth="yes"/>
      <point x="472" y="408"/>
      <point x="466" y="295"/>
      <point x="462" y="235" type="curve" smooth="yes"/>
      <point x="461" y="218" type="line"/>
    </contour>
    <contour>
      <point x="550" y="213" type="line"/>
      <point x="530" y="286" type="line"/>
      <point x="328" y="287" type="line"/>
      <point x="328" y="214" type="line"/>
    </contour>
  </outline>
</glyph>
<glyph name="eth" format="2">
  <advance width="610"/>
  <unicode hex="00F0"/>
  <outline>
    <contour>
      <point x="231" y="657" type="line"/>
      <point x="400" y="561"/>
      <point x="472" y="430"/>
      <point x="472" y="277" type="curve" smooth="yes"/>
      <point x="472" y="277"/>
      <point x="460" y="279"/>
      <point x="460" y="277" type="curve" smooth="yes"/>
      <point x="460" y="137"/>
      <point x="403" y="65"/>
      <point x="308" y="65" type="curve" smooth="yes"/>
      <point x="216" y="65"/>
      <point x="166" y="131"/>
      <point x="166" y="236" type="curve" smooth="yes"/>
      <point x="166" y="339"/>
      <point x="215" y="405"/>
      <point x="308" y="405" type="curve" smooth="yes"/>
      <point x="422" y="405"/>
      <point x="466" y="306"/>
      <point x="457" y="218" type="curve"/>
      <point x="496" y="218" type="line"/>
      <point x="526" y="328"/>
      <point x="443" y="480"/>
      <point x="303" y="480" type="curve"/>
      <point x="142" y="480"/>
      <point x="83" y="345"/>
      <point x="83" y="234" type="curve" smooth="yes"/>
      <point x="83" y="125"/>
      <point x="141" y="-10"/>
      <point x="306" y="-10" type="curve" smooth="yes"/>
      <point x="416" y="-10"/>
      <point x="538" y="48"/>
      <point x="538" y="281" type="curve" smooth="yes"/>
      <point x="538" y="444"/>
      <point x="478" y="595"/>
      <point x="306" y="700" type="curve"/>
    </contour>
    <contour>
      <point x="504" y="616" type="line"/>
      <point x="477" y="675" type="line"/>
      <point x="224" y="566" type="line"/>
      <point x="247" y="505" type="line"/>
    </contour>
  </outline>
</glyph>
<glyph name="thorn" format="2">
  <advance width="610"/>
  <unicode hex="00FE"/>
  <outline>
    <contour>
      <point x="137" y="235" type="line"/>
      <point x="162" y="374" type="line"/>
      <point x="165" y="700" type="line"/>
      <point x="82" y="700" type="line"/>
      <point x="82" y="-230" type="line"/>
      <point x="165" y="-230" type="line"/>
      <point x="162" y="96" type="line"/>
    </contour>
    <component base="b-bowl"/>
  </outline>
</glyph>
<glyph name="dotlessi" format="2">
  <advance width="610"/>
  <unicode hex="0131"/>
  <anchor x="310" y="0" name="bottom"/>
  <anchor x="369" y="10" name="ogonek"/>
  <anchor x="300" y="580" name="top"/>
  <outline>
    <contour>
      <point x="263" y="470" type="line"/>
      <point x="263" y="0" type="line"/>
      <point x="346" y="0" type="line"/>
      <point x="346" y="470" type="line" smooth="yes"/>
    </contour>
    <contour>
      <point x="84" y="75" type="line"/>
      <point x="84" y="0" type="line"/>
      <point x="526" y="0" type="line"/>
      <point x="526" y="75" type="line" smooth="yes"/>
    </contour>
    <contour>
      <point x="104" y="470" type="line"/>
      <point x="104" y="395" type="line" smooth="yes"/>
      <point x="316" y="395" type="line" smooth="yes"/>
      <point x="316" y="470" type="line" smooth="yes"/>
    </contour>
  </outline>
</glyph>
<glyph name="IJ" format="2">
  <advance width="610"/>
  <unicode hex="0132"/>
  <outline>
    <contour>
      <point x="122" y="700" type="line"/>
      <point x="122" y="0" type="line"/>
      <point x="205" y="0" type="line"/>
      <point x="205" y="700" type="line"/>
    </contour>
    <contour>
      <point x="309" y="65" type="curve"/>
      <point x="310" y="-10" type="line"/>
      <point x="427" y="-10"/>
      <point x="516" y="45"/>
      <point x="516" y="251" type="curve" smooth="yes"/>
      <point x="516" y="700" type="line"/>
      <point x="433" y="700" type="line"/>
      <point x="433" y="275" type="line" smooth="yes"/>
      <point x="433" y="107"/>
      <point x="398" y="65"/>
    </contour>
  </outline>
</glyph>
<glyph name="ij" format="2">
  <advance width="610"/>
  <unicode hex="0133"/>
  <outline>
    <contour>
      <point x="112" y="470" type="line" smooth="yes"/>
      <point x="113" y="0" type="line"/>
      <point x="195" y="0" type="line"/>
      <point x="193" y="470" type="line" smooth="yes"/>
    </contour>
    <contour>
      <point x="95" y="584" type="line"/>
      <point x="211" y="584" type="line"/>
      <point x="211" y="700" type="line"/>
      <point x="95" y="700" type="line"/>
    </contour>
    <contour>
      <point x="512" y="470" type="line"/>
      <point x="150" y="470" type="line"/>
      <point x="150" y="395" type="line"/>
      <point x="474" y="395" type="line"/>
      <point x="429" y="440" type="line"/>
      <point x="429" y="-50" type="line" smooth="yes"/>
      <point x="429" y="-120"/>
      <point x="394" y="-165"/>
      <point x="313" y="-165" type="curve" smooth="yes"/>
      <point x="262" y="-165"/>
      <point x="203" y="-147"/>
      <point x="177" y="-76" type="curve"/>
      <point x="107" y="-112" type="line"/>
      <point x="138" y="-198"/>
      <point x="222" y="-240"/>
      <point x="314" y="-240" type="curve" smooth="yes"/>
      <point x="434" y="-240"/>
      <point x="512" y="-168"/>
      <point x="512" y="-48" type="curve" smooth="yes"/>
    </contour>
    <contour>
      <point x="395" y="584" type="line"/>
      <point x="511" y="584" type="line"/>
      <point x="511" y="700" type="line"/>
      <point x="395" y="700" type="line"/>
    </contour>
  </outline>
</glyph>
<glyph name="Eng" format="2">
  <advance width="610"/>
  <unicode hex="014A"/>
  <anchor x="497" y="0" name="bottom"/>
  <outline>
    <contour>
      <point x="315" y="-134" type="curve"/>
      <point x="318" y="-209" type="line"/>
      <point x="438" y="-213"/>
      <point x="536" y="-149"/>
      <point x="536" y="-17" type="curve" smooth="yes"/>
      <point x="536" y="26" type="line"/>
      <point x="454" y="26" type="line"/>
      <point x="454" y="-100"/>
      <point x="417" y="-138"/>
    </contour>
    <component base="N"/>
  </outline>
</glyph>
<glyph name="eng" format="2">
  <advance width="610"/>
  <unicode hex="014B"/>
  <anchor x="356" y="0" name="bottom"/>
  <anchor x="356" y="500" name="top"/>
  <outline>
    <contour>
      <point x="283" y="-134" type="curve"/>
      <point x="286" y="-209" type="line"/>
      <point x="406" y="-213"/>
      <point x="505" y="-149"/>
      <point x="505" y="-16" type="curve" smooth="yes"/>
      <point x="505" y="26" type="line"/>
      <point x="422" y="26" type="line" smooth="yes"/>
      <point x="422" y="-100"/>
      <point x="385" y="-138"/>
    </contour>
    <contour>
      <point x="253" y="-233" type="move"/>
    </contour>
    <component base="n"/>
  </outline>
</glyph>
<glyph name="OE" format="2">
  <advance width="610"/>
  <unicode hex="0152"/>
  <anchor x="310" y="0" name="bottom"/>
  <anchor x="558" y="10" name="ogonek"/>
  <anchor x="303" y="800" name="top"/>
  <outline>
    <contour>
      <point x="336" y="625" type="curve"/>
      <point x="336" y="700" type="line"/>
      <point x="139" y="699"/>
      <point x="59" y="516"/>
      <point x="59" y="350" type="curve" smooth="yes"/>
      <point x="59" y="184"/>
      <point x="140" y="1"/>
      <point x="336" y="0" type="curve"/>
      <point x="336" y="76" type="line"/>
      <point x="218" y="77"/>
      <point x="142" y="177"/>
      <point x="142" y="350" type="curve" smooth="yes"/>
      <point x="142" y="524"/>
      <point x="218" y="624"/>
    </contour>
    <contour>
      <point x="328" y="406" type="line"/>
      <point x="328" y="331" type="line"/>
      <point x="492" y="331" type="line"/>
      <point x="492" y="406" type="line"/>
    </contour>
    <contour>
      <point x="392" y="76" type="line"/>
      <point x="392" y="625" type="line"/>
      <point x="542" y="625" type="line"/>
      <point x="542" y="700" type="line"/>
      <point x="336" y="700" type="line"/>
      <point x="308" y="675" type="line"/>
      <point x="308" y="26" type="line"/>
      <point x="336" y="0" type="line"/>
      <point x="552" y="0" type="line"/>
      <point x="552" y="75" type="line"/>
    </contour>
  </outline>
</glyph>
<glyph name="oe" format="2">
  <advance width="610"/>
  <unicode hex="0153"/>
  <anchor x="315" y="-10" name="bottom"/>
  <anchor x="353" y="-55" name="ogonek"/>
  <anchor x="315" y="580" name="top"/>
  <outline>
    <contour>
      <point x="310" y="287" type="line"/>
      <point x="310" y="214" type="line"/>
      <point x="530" y="213" type="line"/>
      <point x="510" y="286" type="line"/>
    </contour>
    <contour>
      <point x="442" y="235" type="curve" smooth="yes"/>
      <point x="440" y="218" type="line"/>
      <point x="530" y="213" type="line"/>
      <point x="531" y="235" type="line" smooth="yes"/>
      <point x="537" y="361"/>
      <point x="474" y="480"/>
      <point x="310" y="480" type="curve" smooth="yes"/>
      <point x="142" y="480"/>
      <point x="79" y="354"/>
      <point x="79" y="236" type="curve" smooth="yes"/>
      <point x="79" y="117"/>
      <point x="144" y="-10"/>
      <point x="315" y="-10" type="curve" smooth="yes"/>
      <point x="429" y="-10"/>
      <point x="488" y="47"/>
      <point x="518" y="118" type="curve"/>
      <point x="448" y="154" type="line"/>
      <point x="428" y="93"/>
      <point x="385" y="65"/>
      <point x="318" y="65" type="curve" smooth="yes"/>
      <point x="214" y="65"/>
      <point x="162" y="132"/>
      <point x="162" y="237" type="curve" smooth="yes"/>
      <point x="162" y="339"/>
      <point x="212" y="405"/>
      <point x="312" y="405" type="curve" smooth="yes"/>
      <point x="401" y="405"/>
      <point x="456" y="352"/>
    </contour>
    <contour>
      <point x="352" y="460" type="line"/>
      <point x="269" y="460" type="line"/>
      <point x="269" y="0" type="line"/>
      <point x="352" y="0" type="line"/>
    </contour>
  </outline>
</glyph>
<glyph name="uogonek" format="2">
  <advance width="610"/>
  <unicode hex="0173"/>
  <anchor x="350" y="10" name="_ogonek"/>
  <outline>
    <contour>
      <point x="473" y="65" type="line"/>
      <point x="398" y="-38" type="line" smooth="yes"/>
      <point x="338" y="-121"/>
      <point x="429" y="-252"/>
      <point x="590" y="-178" type="curve"/>
      <point x="544" y="-117" type="line"/>
      <point x="454" y="-142"/>
      <point x="440" y="-91"/>
      <point x="493" y="-19" type="curve" smooth="yes"/>
      <point x="507" y="0" type="line"/>
    </contour>
    <component base="u"/>
  </outline>
</glyph>
<glyph name="florin" format="2">
  <advance width="610"/>
  <unicode hex="0192"/>
  <outline>
    <contour>
      <point x="17" y="-47" type="line"/>
      <point x="41" y="-67"/>
      <point x="79" y="-83"/>
      <point x="135" y="-83" type="curve" smooth="yes"/>
      <point x="304" y="-83"/>
      <point x="323" y="62"/>
      <point x="330" y="144" type="curve" smooth="yes"/>
      <point x="359" y="466" type="line" smooth="yes"/>
      <point x="368" y="571"/>
      <point x="375" y="633"/>
      <point x="456" y="633" type="curve" smooth="yes"/>
      <point x="499" y="633"/>
      <point x="520" y="614"/>
      <point x="538" y="585" type="curve"/>
      <point x="599" y="635" type="line"/>
      <point x="569" y="689"/>
      <point x="517" y="710"/>
      <point x="455" y="710" type="curve" smooth="yes"/>
      <point x="295" y="710"/>
      <point x="284" y="573"/>
      <point x="275" y="478" type="curve" smooth="yes"/>
      <point x="249" y="190" type="line" smooth="yes"/>
      <point x="238" y="72"/>
      <point x="232" y="-6"/>
      <point x="138" y="-6" type="curve" smooth="yes"/>
      <point x="107" y="-6"/>
      <point x="87" y="2"/>
      <point x="62" y="17" type="curve"/>
    </contour>
    <contour>
      <point x="490" y="394" type="line"/>
      <point x="120" y="394" type="line"/>
      <point x="120" y="317" type="line"/>
      <point x="490" y="317" type="line"/>
    </contour>
  </outline>
</glyph>
<glyph name="uni0237" format="2">
  <advance width="610"/>
  <unicode hex="0237"/>
  <anchor x="307" y="0" name="bottom"/>
  <anchor x="430" y="580" name="top"/>
  <outline>
    <contour>
      <point x="495" y="-48" type="curve" smooth="yes"/>
      <point x="495" y="470" type="line"/>
      <point x="133" y="470" type="line"/>
      <point x="133" y="395" type="line"/>
      <point x="457" y="395" type="line"/>
      <point x="412" y="440" type="line"/>
      <point x="412" y="-50" type="line" smooth="yes"/>
      <point x="412" y="-120"/>
      <point x="377" y="-165"/>
      <point x="296" y="-165" type="curve" smooth="yes"/>
      <point x="245" y="-165"/>
      <point x="186" y="-147"/>
      <point x="160" y="-76" type="curve"/>
      <point x="90" y="-112" type="line"/>
      <point x="121" y="-198"/>
      <point x="205" y="-240"/>
      <point x="297" y="-240" type="curve" smooth="yes"/>
      <point x="417" y="-240"/>
      <point x="495" y="-168"/>
    </contour>
  </outline>
</glyph>
<glyph name="breve" format="2">
  <advance width="610"/>
  <unicode hex="02D8"/>
  <guideline x="302" y="775" angle="0"/>
  <outline>
    <contour>
      <point x="413" y="695" type="line"/>
      <point x="394" y="644"/>
      <point x="373" y="605"/>
      <point x="305" y="605" type="curve" smooth="yes"/>
      <point x="237" y="605"/>
      <point x="216" y="644"/>
      <point x="197" y="695" type="curve"/>
      <point x="126" y="658" type="line"/>
      <point x="153" y="574"/>
      <point x="217" y="530"/>
      <point x="305" y="530" type="curve" smooth="yes"/>
      <point x="393" y="530"/>
      <point x="457" y="574"/>
      <point x="484" y="658" type="curve"/>
    </contour>
  </outline>
</glyph>
<glyph name="ogonek" format="2">
  <advance width="610"/>
  <unicode hex="02DB"/>
  <outline>
    <contour>
      <point x="397" y="55" type="line"/>
      <point x="322" y="-48" type="line" smooth="yes"/>
      <point x="262" y="-131"/>
      <point x="353" y="-262"/>
      <point x="514" y="-188" type="curve"/>
      <point x="468" y="-127" type="line"/>
      <point x="378" y="-152"/>
      <point x="364" y="-103"/>
      <point x="417" y="-29" type="curve" smooth="yes"/>
      <point x="472" y="48" type="line"/>
    </contour>
  </outline>
</glyph>
<glyph name="tilde" format="2">
  <advance width="610"/>
  <unicode hex="02DC"/>
  <outline>
    <contour>
      <point x="484" y="598" type="curve"/>
      <point x="421" y="645" type="line"/>
      <point x="401" y="617"/>
      <point x="394" y="605"/>
      <point x="371" y="605" type="curve" smooth="yes"/>
      <point x="329" y="605"/>
      <point x="316" y="650"/>
      <point x="241" y="650" type="curve" smooth="yes"/>
      <point x="187" y="650"/>
      <point x="155" y="627"/>
      <point x="127" y="582" type="curve"/>
      <point x="190" y="535" type="line"/>
      <point x="209" y="560"/>
      <point x="216" y="575"/>
      <point x="240" y="575" type="curve" smooth="yes"/>
      <point x="282" y="575"/>
      <point x="295" y="530"/>
      <point x="370" y="530" type="curve" smooth="yes"/>
      <point x="424" y="530"/>
      <point x="456" y="553"/>
    </contour>
  </outline>
</glyph>
<glyph name="dotaccentcomb" format="2">
  <advance width="610"/>
  <unicode hex="0307"/>
  <anchor x="305" y="530" name="_top"/>
  <outline>
    <contour>
      <point x="253" y="530" type="line"/>
      <point x="358" y="530" type="line"/>
      <point x="358" y="635" type="line"/>
      <point x="253" y="635" type="line"/>
    </contour>
  </outline>
</glyph>
<glyph name="uni0308" format="2">
  <advance width="0"/>
  <unicode hex="0308"/>
  <anchor x="305" y="530" name="_top"/>
  <outline>
    <contour>
      <point x="156" y="533" type="line"/>
      <point x="256" y="533" type="line"/>
      <point x="256" y="633" type="line"/>
      <point x="156" y="633" type="line"/>
    </contour>
    <contour>
      <point x="356" y="533" type="line"/>
      <point x="456" y="533" type="line"/>
      <point x="456" y="633" type="line"/>
      <point x="356" y="633" type="line"/>
    </contour>
  </outline>
</glyph>
<glyph name="uni0326" format="2">
  <advance width="0"/>
  <unicode hex="0326"/>
  <guideline x="284" y="-75" angle="0"/>
  <anchor x="318" y="0" name="_bottom"/>
  <anchor x="298" y="-200" name="bottom"/>
  <outline>
    <contour>
      <point x="286" y="-75" type="line"/>
      <point x="224" y="-200" type="line"/>
      <point x="313" y="-200" type="line"/>
      <point x="367" y="-75" type="line"/>
    </contour>
  </outline>
</glyph>
<glyph name="uni0335" format="2">
  <advance width="0"/>
  <unicode hex="0335"/>
  <anchor x="305" y="257" name="_center"/>
  <outline>
    <contour>
      <point x="444" y="294" type="line"/>
      <point x="166" y="294" type="line"/>
      <point x="167" y="219" type="line"/>
      <point x="444" y="219" type="line"/>
    </contour>
  </outline>
</glyph>
<glyph name="strokelongcomb" format="2">
  <advance width="610"/>
  <unicode hex="0336"/>
  <anchor x="305" y="257" name="_center"/>
  <outline>
    <contour>
      <point x="590" y="298" type="line"/>
      <point x="20" y="298" type="line"/>
      <point x="21" y="215" type="line"/>
      <point x="590" y="215" type="line"/>
    </contour>
  </outline>
</glyph>
<glyph name="uni0336" format="2">
  <advance width="0"/>
  <unicode hex="0336"/>
  <anchor x="305" y="257" name="_center"/>
  <outline>
    <contour>
      <point x="590" y="298" type="line"/>
      <point x="20" y="298" type="line"/>
      <point x="21" y="215" type="line"/>
      <point x="590" y="215" type="line"/>
    </contour>
  </outline>
</glyph>
<glyph name="slashshortcomb" format="2">
  <advance width="610"/>
  <unicode hex="0337"/>
  <anchor x="305" y="245" name="_center"/>
  <outline>
    <contour>
      <point x="478" y="482" type="line"/>
      <point x="47" y="40" type="line"/>
      <point x="131" y="8" type="line"/>
      <point x="563" y="451" type="line"/>
    </contour>
  </outline>
</glyph>
<glyph name="slashlongcomb" format="2">
  <advance width="610"/>
  <unicode hex="0338"/>
  <anchor x="305" y="349" name="_center"/>
  <outline>
    <contour>
      <point x="420" y="709" type="line"/>
      <point x="100" y="-10" type="line"/>
      <point x="189" y="-11" type="line"/>
      <point x="510" y="709" type="line"/>
    </contour>
  </outline>
</glyph>
<glyph name="uni0394" format="2">
  <advance width="610"/>
  <unicode hex="0394"/>
  <outline>
    <contour>
      <point x="337" y="700" type="line"/>
      <point x="274" y="700" type="line"/>
      <point x="30" y="0" type="line"/>
      <point x="580" y="0" type="line"/>
    </contour>
    <contour>
      <point x="281" y="643" type="line"/>
      <point x="482" y="36" type="line"/>
      <point x="511" y="77" type="line"/>
      <point x="98" y="77" type="line"/>
      <point x="127" y="36" type="line"/>
      <point x="329" y="643" type="line"/>
    </contour>
  </outline>
</glyph>
<glyph name="Omega" format="2">
  <advance width="610"/>
  <unicode hex="03A9"/>
  <outline>
    <contour>
      <point x="571" y="410" type="curve" smooth="yes"/>
      <point x="571" y="588"/>
      <point x="461" y="710"/>
      <point x="305" y="710" type="curve" smooth="yes"/>
      <point x="149" y="710"/>
      <point x="39" y="588"/>
      <point x="39" y="410" type="curve" smooth="yes"/>
      <point x="39" y="250"/>
      <point x="128" y="189"/>
      <point x="185" y="147" type="curve"/>
      <point x="166" y="200" type="line"/>
      <point x="166" y="32" type="line"/>
      <point x="214" y="77" type="line"/>
      <point x="77" y="77" type="line"/>
      <point x="77" y="0" type="line"/>
      <point x="251" y="0" type="line"/>
      <point x="251" y="195" type="line"/>
      <point x="199" y="220"/>
      <point x="124" y="290"/>
      <point x="124" y="411" type="curve" smooth="yes"/>
      <point x="124" y="506"/>
      <point x="171" y="633"/>
      <point x="305" y="633" type="curve" smooth="yes"/>
      <point x="439" y="633"/>
      <point x="486" y="506"/>
      <point x="486" y="411" type="curve" smooth="yes"/>
      <point x="486" y="290"/>
      <point x="411" y="220"/>
      <point x="359" y="195" type="curve"/>
      <point x="359" y="0" type="line"/>
      <point x="533" y="0" type="line"/>
      <point x="533" y="77" type="line"/>
      <point x="396" y="77" type="line"/>
      <point x="444" y="32" type="line"/>
      <point x="444" y="200" type="line"/>
      <point x="425" y="147" type="line"/>
      <point x="482" y="189"/>
      <point x="571" y="250"/>
    </contour>
  </outline>
</glyph>
<glyph name="pi" format="2">
  <advance width="610"/>
  <unicode hex="03C0"/>
  <outline>
    <contour>
      <point x="57" y="470" type="line"/>
      <point x="57" y="395" type="line"/>
      <point x="554" y="395" type="line"/>
      <point x="554" y="470" type="line"/>
    </contour>
    <contour>
      <point x="144" y="430" type="line"/>
      <point x="144" y="0" type="line"/>
      <point x="227" y="0" type="line"/>
      <point x="227" y="430" type="line"/>
    </contour>
    <contour>
      <point x="384" y="430" type="line"/>
      <point x="384" y="162" type="line" smooth="yes"/>
      <point x="384" y="76"/>
      <point x="423" y="34"/>
      <point x="469" y="0" type="curve"/>
      <point x="517" y="61" type="line"/>
      <point x="492" y="85"/>
      <point x="467" y="95"/>
      <point x="467" y="167" type="curve" smooth="yes"/>
      <point x="467" y="430" type="line"/>
    </contour>
  </outline>
</glyph>
<glyph name="endash" format="2">
  <advance width="610"/>
  <unicode hex="2013"/>
  <outline>
    <contour>
      <point x="89" y="316" type="line"/>
      <point x="89" y="239" type="line"/>
      <point x="511" y="239" type="line"/>
      <point x="511" y="316" type="line"/>
    </contour>
  </outline>
</glyph>
<glyph name="emdash" format="2">
  <advance width="610"/>
  <unicode hex="2014"/>
  <outline>
    <contour>
      <point x="29" y="316" type="line"/>
      <point x="29" y="239" type="line"/>
      <point x="571" y="239" type="line"/>
      <point x="571" y="316" type="line"/>
    </contour>
  </outline>
</glyph>
<glyph name="dagger" format="2">
  <advance width="610"/>
  <unicode hex="2020"/>
  <outline>
    <contour>
      <point x="348" y="186" type="line"/>
      <point x="348" y="700" type="line"/>
      <point x="263" y="700" type="line"/>
      <point x="263" y="186" type="line"/>
    </contour>
    <contour>
      <point x="128" y="505" type="line"/>
      <point x="482" y="505" type="line"/>
      <point x="482" y="582" type="line"/>
      <point x="128" y="582" type="line"/>
    </contour>
  </outline>
</glyph>
<glyph name="daggerdbl" format="2">
  <advance width="610"/>
  <unicode hex="2021"/>
  <outline>
    <contour>
      <point x="348" y="186" type="line"/>
      <point x="348" y="700" type="line"/>
      <point x="263" y="700" type="line"/>
      <point x="263" y="186" type="line"/>
    </contour>
    <contour>
      <point x="128" y="305" type="line"/>
      <point x="482" y="305" type="line"/>
      <point x="482" y="382" type="line"/>
      <point x="128" y="382" type="line"/>
    </contour>
    <contour>
      <point x="128" y="505" type="line"/>
      <point x="482" y="505" type="line"/>
      <point x="482" y="582" type="line"/>
      <point x="128" y="582" type="line"/>
    </contour>
  </outline>
</glyph>
<glyph name="bullet" format="2">
  <advance width="610"/>
  <unicode hex="2022"/>
  <outline>
    <contour>
      <point x="306" y="167" type="curve" smooth="yes"/>
      <point x="374" y="167"/>
      <point x="430" y="223"/>
      <point x="430" y="291" type="curve" smooth="yes"/>
      <point x="430" y="359"/>
      <point x="374" y="415"/>
      <point x="306" y="415" type="curve" smooth="yes"/>
      <point x="237" y="415"/>
      <point x="181" y="359"/>
      <point x="181" y="291" type="curve" smooth="yes"/>
      <point x="181" y="223"/>
      <point x="237" y="167"/>
    </contour>
  </outline>
</glyph>
<glyph name="perthousand" format="2">
  <advance width="610"/>
  <unicode hex="2030"/>
  <outline>
    <contour>
      <point x="178" y="444" type="curve" smooth="yes"/>
      <point x="251" y="444"/>
      <point x="311" y="504"/>
      <point x="311" y="577" type="curve" smooth="yes"/>
      <point x="311" y="650"/>
      <point x="251" y="710"/>
      <point x="178" y="710" type="curve" smooth="yes"/>
      <point x="105" y="710"/>
      <point x="45" y="650"/>
      <point x="45" y="577" type="curve" smooth="yes"/>
      <point x="45" y="504"/>
      <point x="105" y="444"/>
    </contour>
    <contour>
      <point x="178" y="519" type="curve" smooth="yes"/>
      <point x="150" y="519"/>
      <point x="128" y="545"/>
      <point x="128" y="577" type="curve" smooth="yes"/>
      <point x="128" y="609"/>
      <point x="150" y="635"/>
      <point x="178" y="635" type="curve" smooth="yes"/>
      <point x="206" y="635"/>
      <point x="228" y="609"/>
      <point x="228" y="577" type="curve" smooth="yes"/>
      <point x="228" y="545"/>
      <point x="206" y="519"/>
    </contour>
    <contour>
      <point x="442" y="-10" type="curve" smooth="yes"/>
      <point x="515" y="-10"/>
      <point x="575" y="50"/>
      <point x="575" y="123" type="curve" smooth="yes"/>
      <point x="575" y="196"/>
      <point x="515" y="256"/>
      <point x="442" y="256" type="curve" smooth="yes"/>
      <point x="369" y="256"/>
      <point x="322" y="196"/>
      <point x="322" y="123" type="curve" smooth="yes"/>
      <point x="322" y="50"/>
      <point x="369" y="-10"/>
    </contour>
    <contour>
      <point x="442" y="65" type="curve" smooth="yes"/>
      <point x="414" y="65"/>
      <point x="382" y="91"/>
      <point x="382" y="123" type="curve" smooth="yes"/>
      <point x="382" y="155"/>
      <point x="414" y="181"/>
      <point x="442" y="181" type="curve" smooth="yes"/>
      <point x="470" y="181"/>
      <point x="492" y="155"/>
      <point x="492" y="123" type="curve" smooth="yes"/>
      <point x="492" y="91"/>
      <point x="470" y="65"/>
    </contour>
    <contour>
      <point x="262" y="-10" type="curve" smooth="yes"/>
      <point x="335" y="-10"/>
      <point x="382" y="50"/>
      <point x="382" y="123" type="curve" smooth="yes"/>
      <point x="382" y="196"/>
      <point x="335" y="256"/>
      <point x="262" y="256" type="curve" smooth="yes"/>
      <point x="189" y="256"/>
      <point x="129" y="196"/>
      <point x="129" y="123" type="curve" smooth="yes"/>
      <point x="129" y="50"/>
      <point x="189" y="-10"/>
    </contour>
    <contour>
      <point x="262" y="65" type="curve" smooth="yes"/>
      <point x="234" y="65"/>
      <point x="212" y="91"/>
      <point x="212" y="123" type="curve" smooth="yes"/>
      <point x="212" y="155"/>
      <point x="234" y="181"/>
      <point x="262" y="181" type="curve" smooth="yes"/>
      <point x="290" y="181"/>
      <point x="322" y="155"/>
      <point x="322" y="123" type="curve" smooth="yes"/>
      <point x="322" y="91"/>
      <point x="290" y="65"/>
    </contour>
    <component base="fraction" yOffset="30"/>
  </outline>
</glyph>
<glyph name="guilsinglleft" format="2">
  <advance width="610"/>
  <unicode hex="2039"/>
  <outline>
    <contour>
      <point x="250" y="223" type="line"/>
      <point x="415" y="470" type="line"/>
      <point x="316" y="470" type="line"/>
      <point x="190" y="261" type="line"/>
      <point x="316" y="52" type="line"/>
      <point x="415" y="52" type="line"/>
      <point x="250" y="299" type="line"/>
    </contour>
  </outline>
</glyph>
<glyph name="guilsinglright" format="2">
  <advance width="610"/>
  <unicode hex="203A"/>
  <outline>
    <contour>
      <point x="323" y="223" type="line"/>
      <point x="323" y="299" type="line"/>
      <point x="158" y="52" type="line"/>
      <point x="257" y="52" type="line"/>
      <point x="383" y="261" type="line"/>
      <point x="257" y="470" type="line"/>
      <point x="158" y="470" type="line"/>
    </contour>
  </outline>
</glyph>
<glyph name="fraction" format="2">
  <advance width="610"/>
  <unicode hex="2044"/>
  <outline>
    <contour>
      <point x="97" y="154" type="line"/>
      <point x="554" y="489" type="line"/>
      <point x="513" y="537" type="line"/>
      <point x="57" y="201" type="line"/>
    </contour>
  </outline>
</glyph>
<glyph name="uni207E" format="2">
  <advance width="610"/>
  <unicode hex="207E"/>
  <guideline x="229" y="-164" angle="0"/>
  <guideline x="229" y="757" angle="0"/>
  <outline>
    <contour>
      <point x="322" y="649" type="curve" smooth="yes"/>
      <point x="322" y="560"/>
      <point x="276" y="460"/>
      <point x="264" y="452" type="curve"/>
      <point x="323" y="427" type="line"/>
      <point x="362" y="469"/>
      <point x="392" y="566"/>
      <point x="392" y="649" type="curve" smooth="yes"/>
      <point x="392" y="731"/>
      <point x="363" y="821"/>
      <point x="323" y="866" type="curve"/>
      <point x="265" y="840" type="line"/>
      <point x="278" y="827"/>
      <point x="322" y="739"/>
    </contour>
  </outline>
</glyph>
<glyph name="euro" format="2">
  <advance width="610"/>
  <unicode hex="20AC"/>
  <outline>
    <contour>
      <point x="415" y="461" type="line"/>
      <point x="95" y="461" type="line"/>
      <point x="65" y="384" type="line"/>
      <point x="385" y="384" type="line"/>
    </contour>
    <contour>
      <point x="425" y="311" type="line"/>
      <point x="105" y="311" type="line"/>
      <point x="75" y="234" type="line"/>
      <point x="395" y="234" type="line"/>
    </contour>
    <contour>
      <point x="373" y="69" type="curve" smooth="yes"/>
      <point x="252" y="69"/>
      <point x="203" y="158"/>
      <point x="203" y="351" type="curve" smooth="yes"/>
      <point x="203" y="544"/>
      <point x="252" y="633"/>
      <point x="373" y="633" type="curve" smooth="yes"/>
      <point x="434" y="633"/>
      <point x="458" y="608"/>
      <point x="482" y="576" type="curve"/>
      <point x="545" y="628" type="line"/>
      <point x="511" y="670"/>
      <point x="468" y="710"/>
      <point x="373" y="710" type="curve" smooth="yes"/>
      <point x="184" y="710"/>
      <point x="119" y="562"/>
      <point x="119" y="351" type="curve" smooth="yes"/>
      <point x="119" y="140"/>
      <point x="184" y="-8"/>
      <point x="373" y="-8" type="curve" smooth="yes"/>
      <point x="468" y="-8"/>
      <point x="511" y="32"/>
      <point x="545" y="74" type="curve"/>
      <point x="482" y="126" type="line"/>
      <point x="458" y="94"/>
      <point x="434" y="69"/>
    </contour>
  </outline>
</glyph>
<glyph name="trademark" format="2">
  <advance width="610"/>
  <unicode hex="2122"/>
  <guideline x="292" y="495" angle="0"/>
  <guideline x="274" y="705" angle="180"/>
  <anchor x="231.856" y="495" name="bottom"/>
  <anchor x="231.856" y="600.408" name="center"/>
  <anchor x="231.856" y="735.933" name="top"/>
  <outline>
    <contour>
      <point x="189" y="694" type="line"/>
      <point x="189" y="495" type="line"/>
      <point x="235" y="495" type="line"/>
      <point x="235" y="694" type="line"/>
    </contour>
    <contour>
      <point x="125" y="706" type="line"/>
      <point x="125" y="665" type="line"/>
      <point x="299" y="665" type="line"/>
      <point x="299" y="706" type="line"/>
    </contour>
    <contour>
      <point x="500" y="495" type="line"/>
      <point x="500" y="705" type="line"/>
      <point x="464" y="705" type="line"/>
      <point x="412" y="615" type="line"/>
      <point x="425" y="615" type="line"/>
      <point x="373" y="705" type="line"/>
      <point x="337" y="705" type="line"/>
      <point x="337" y="495" type="line"/>
      <point x="382" y="495" type="line"/>
      <point x="376" y="673" type="line"/>
      <point x="356" y="673" type="line"/>
      <point x="406" y="581" type="line"/>
      <point x="431" y="581" type="line"/>
      <point x="481" y="673" type="line"/>
      <point x="461" y="673" type="line"/>
      <point x="455" y="495" type="line"/>
    </contour>
  </outline>
</glyph>
<glyph name="upArrow" format="2">
  <advance width="610"/>
  <unicode hex="2191"/>
  <outline>
    <contour>
      <point x="516" y="505" type="line"/>
      <point x="315" y="680" type="line"/>
      <point x="113" y="505" type="line"/>
      <point x="163" y="445" type="line"/>
      <point x="308" y="575" type="line"/>
      <point x="278" y="589" type="line"/>
      <point x="272" y="100" type="line"/>
      <point x="357" y="100" type="line"/>
      <point x="352" y="589" type="line"/>
      <point x="323" y="575" type="line"/>
      <point x="466" y="445" type="line"/>
    </contour>
  </outline>
</glyph>
<glyph name="leftRightArrow" format="2">
  <advance width="610"/>
  <unicode hex="2194"/>
  <outline>
    <contour>
      <point x="419" y="602" type="line"/>
      <point x="359" y="552" type="line"/>
      <point x="461" y="438" type="line"/>
      <point x="137" y="438" type="line"/>
      <point x="239" y="552" type="line"/>
      <point x="179" y="602" type="line"/>
      <point x="4" y="400" type="line"/>
      <point x="179" y="199" type="line"/>
      <point x="239" y="249" type="line"/>
      <point x="136" y="362" type="line"/>
      <point x="462" y="362" type="line"/>
      <point x="359" y="249" type="line"/>
      <point x="419" y="199" type="line"/>
      <point x="594" y="400" type="line"/>
    </contour>
  </outline>
</glyph>
<glyph name="partialdiff" format="2">
  <advance width="610"/>
  <unicode hex="2202"/>
  <outline>
    <contour>
      <point x="306" y="700" type="curve"/>
      <point x="227" y="657" type="line"/>
      <point x="353" y="586"/>
      <point x="456" y="504"/>
      <point x="447" y="339" type="curve"/>
      <point x="458" y="399" type="line"/>
      <point x="423" y="446"/>
      <point x="369" y="480"/>
      <point x="303" y="480" type="curve" smooth="yes"/>
      <point x="141" y="480"/>
      <point x="81" y="346"/>
      <point x="81" y="236" type="curve" smooth="yes"/>
      <point x="81" y="125"/>
      <point x="139" y="-10"/>
      <point x="305" y="-10" type="curve" smooth="yes"/>
      <point x="436" y="-10"/>
      <point x="529" y="66"/>
      <point x="529" y="287" type="curve" smooth="yes"/>
      <point x="529" y="444"/>
      <point x="474" y="599"/>
    </contour>
    <contour>
      <point x="305" y="67" type="curve" smooth="yes"/>
      <point x="217" y="67"/>
      <point x="166" y="131"/>
      <point x="166" y="236" type="curve" smooth="yes"/>
      <point x="166" y="339"/>
      <point x="215" y="403"/>
      <point x="308" y="403" type="curve" smooth="yes"/>
      <point x="412" y="403"/>
      <point x="456" y="320"/>
      <point x="456" y="239" type="curve" smooth="yes"/>
      <point x="456" y="119"/>
      <point x="394" y="67"/>
    </contour>
  </outline>
</glyph>
<glyph name="product" format="2">
  <advance width="610"/>
  <unicode hex="220F"/>
  <outline>
    <contour>
      <point x="52" y="700" type="line"/>
      <point x="52" y="623" type="line"/>
      <point x="549" y="623" type="line"/>
      <point x="549" y="700" type="line"/>
    </contour>
    <contour>
      <point x="219" y="667" type="line"/>
      <point x="134" y="667" type="line"/>
      <point x="134" y="-101" type="line"/>
      <point x="219" y="-101" type="line"/>
    </contour>
    <contour>
      <point x="467" y="667" type="line"/>
      <point x="382" y="667" type="line"/>
      <point x="382" y="-101" type="line"/>
      <point x="467" y="-101" type="line"/>
    </contour>
  </outline>
</glyph>
<glyph name="summation" format="2">
  <advance width="610"/>
  <unicode hex="2211"/>
  <outline>
    <contour>
      <point x="529" y="700" type="line"/>
      <point x="72" y="700" type="line"/>
      <point x="72" y="654" type="line"/>
      <point x="280" y="260" type="line"/>
      <point x="280" y="340" type="line"/>
      <point x="72" y="-55" type="line"/>
      <point x="72" y="-101" type="line"/>
      <point x="529" y="-101" type="line"/>
      <point x="529" y="-24" type="line"/>
      <point x="134" y="-26" type="line"/>
      <point x="159" y="-66" type="line"/>
      <point x="338" y="277" type="line"/>
      <point x="338" y="322" type="line"/>
      <point x="159" y="665" type="line"/>
      <point x="134" y="625" type="line"/>
      <point x="529" y="623" type="line"/>
    </contour>
  </outline>
</glyph>
<glyph name="minus" format="2">
  <advance width="610"/>
  <unicode hex="2212"/>
  <guideline x="323" y="21" angle="0"/>
  <outline>
    <contour>
      <point x="530" y="316" type="line"/>
      <point x="81" y="316" type="line"/>
      <point x="81" y="239" type="line"/>
      <point x="530" y="239" type="line"/>
    </contour>
  </outline>
</glyph>
<glyph name="radical" format="2">
  <advance width="610"/>
  <unicode hex="221A"/>
  <outline>
    <contour>
      <point x="590" y="700" type="line"/>
      <point x="370" y="700" type="line"/>
      <point x="204" y="-71" type="line"/>
      <point x="255" y="-71" type="line"/>
      <point x="178" y="309" type="line"/>
      <point x="91" y="309" type="line"/>
      <point x="195" y="-101" type="line"/>
      <point x="264" y="-101" type="line"/>
      <point x="447" y="667" type="line"/>
      <point x="392" y="623" type="line"/>
      <point x="590" y="623" type="line"/>
    </contour>
  </outline>
</glyph>
<glyph name="infinity" format="2">
  <advance width="610"/>
  <unicode hex="221E"/>
  <outline>
    <contour>
      <point x="435" y="478" type="curve" smooth="yes"/>
      <point x="371" y="478"/>
      <point x="334" y="441"/>
      <point x="301" y="357" type="curve"/>
      <point x="309" y="357" type="line"/>
      <point x="275" y="441"/>
      <point x="238" y="478"/>
      <point x="174" y="478" type="curve" smooth="yes"/>
      <point x="72" y="478"/>
      <point x="21" y="402"/>
      <point x="21" y="279" type="curve" smooth="yes"/>
      <point x="21" y="156"/>
      <point x="72" y="80"/>
      <point x="174" y="80" type="curve" smooth="yes"/>
      <point x="238" y="80"/>
      <point x="275" y="117"/>
      <point x="309" y="201" type="curve"/>
      <point x="301" y="201" type="line"/>
      <point x="334" y="117"/>
      <point x="371" y="80"/>
      <point x="435" y="80" type="curve" smooth="yes"/>
      <point x="537" y="80"/>
      <point x="588" y="156"/>
      <point x="588" y="279" type="curve" smooth="yes"/>
      <point x="588" y="402"/>
      <point x="537" y="478"/>
    </contour>
    <contour>
      <point x="266" y="261" type="curve"/>
      <point x="344" y="261" type="line"/>
      <point x="344" y="326"/>
      <point x="378" y="401"/>
      <point x="437" y="401" type="curve" smooth="yes"/>
      <point x="484" y="401"/>
      <point x="503" y="355"/>
      <point x="503" y="279" type="curve" smooth="yes"/>
      <point x="503" y="205"/>
      <point x="485" y="157"/>
      <point x="437" y="157" type="curve" smooth="yes"/>
      <point x="378" y="157"/>
      <point x="344" y="232"/>
      <point x="344" y="297" type="curve"/>
      <point x="266" y="297" type="line"/>
      <point x="266" y="232"/>
      <point x="231" y="157"/>
      <point x="172" y="157" type="curve" smooth="yes"/>
      <point x="125" y="157"/>
      <point x="106" y="203"/>
      <point x="106" y="279" type="curve" smooth="yes"/>
      <point x="106" y="353"/>
      <point x="124" y="401"/>
      <point x="172" y="401" type="curve" smooth="yes"/>
      <point x="231" y="401"/>
      <point x="266" y="326"/>
    </contour>
  </outline>
</glyph>
<glyph name="integral" format="2">
  <advance width="610"/>
  <unicode hex="222B"/>
  <outline>
    <contour>
      <point x="458" y="710" type="line" smooth="yes"/>
      <point x="304" y="710"/>
      <point x="266" y="633"/>
      <point x="265" y="505" type="curve" smooth="yes"/>
      <point x="262" y="103" type="line" smooth="yes"/>
      <point x="261" y="16"/>
      <point x="253" y="-25"/>
      <point x="152" y="-25" type="curve" smooth="yes"/>
      <point x="100" y="-25" type="line"/>
      <point x="100" y="-102" type="line"/>
      <point x="152" y="-102" type="line" smooth="yes"/>
      <point x="306" y="-102"/>
      <point x="344" y="-25"/>
      <point x="345" y="103" type="curve" smooth="yes"/>
      <point x="348" y="505" type="line" smooth="yes"/>
      <point x="349" y="592"/>
      <point x="357" y="633"/>
      <point x="458" y="633" type="curve" smooth="yes"/>
      <point x="510" y="633" type="line"/>
      <point x="510" y="710" type="line"/>
    </contour>
  </outline>
</glyph>
<glyph name="notequal" format="2">
  <advance width="610"/>
  <unicode hex="2260"/>
  <outline>
    <contour>
      <point x="373" y="541" type="line"/>
      <point x="144" y="24" type="line"/>
      <point x="235" y="23" type="line"/>
      <point x="465" y="541" type="line"/>
    </contour>
    <component base="equal" yOffset="-8"/>
  </outline>
</glyph>
<glyph name="lozenge" format="2">
  <advance width="610"/>
  <unicode hex="25CA"/>
  <outline>
    <contour>
      <point x="516" y="363" type="line"/>
      <point x="327" y="700" type="line"/>
      <point x="272" y="700" type="line"/>
      <point x="83" y="363" type="line"/>
      <point x="83" y="335" type="line"/>
      <point x="272" y="0" type="line"/>
      <point x="327" y="0" type="line"/>
      <point x="516" y="335" type="line"/>
    </contour>
    <contour>
      <point x="461" y="388" type="line"/>
      <point x="278" y="70" type="line"/>
      <point x="322" y="70" type="line"/>
      <point x="138" y="388" type="line"/>
      <point x="138" y="310" type="line"/>
      <point x="322" y="630" type="line"/>
      <point x="278" y="630" type="line"/>
      <point x="461" y="310" type="line"/>
    </contour>
  </outline>
</glyph>
<glyph name="fi" format="2">
  <advance width="610"/>
  <unicode hex="FB01"/>
  <outline>
    <contour>
      <point x="455" y="470" type="line" smooth="yes"/>
      <point x="455" y="0" type="line"/>
      <point x="535" y="0" type="line"/>
      <point x="534" y="470" type="line"/>
    </contour>
    <component base="f" xOffset="-8"/>
  </outline>
</glyph>
<glyph name="fl" format="2">
  <advance width="610"/>
  <unicode hex="FB02"/>
  <anchor x="241" y="1" name="top"/>
  <outline>
    <contour>
      <point x="454" y="620" type="line" smooth="yes"/>
      <point x="454" y="0" type="line"/>
      <point x="534" y="0" type="line"/>
      <point x="533" y="623" type="line"/>
    </contour>
    <contour>
      <point x="60" y="470" type="line"/>
      <point x="60" y="395" type="line" smooth="yes"/>
      <point x="370" y="395" type="line" smooth="yes"/>
      <point x="370" y="470" type="line"/>
    </contour>
    <contour>
      <point x="478" y="556" type="curve"/>
      <point x="533" y="623" type="line"/>
      <point x="496" y="686"/>
      <point x="430" y="710"/>
      <point x="366" y="710" type="curve" smooth="yes"/>
      <point x="262" y="710"/>
      <point x="190" y="645"/>
      <point x="190" y="538" type="curve" smooth="yes"/>
      <point x="190" y="0" type="line"/>
      <point x="273" y="0" type="line"/>
      <point x="273" y="527" type="line" smooth="yes"/>
      <point x="273" y="587"/>
      <point x="291" y="635"/>
      <point x="364" y="635" type="curve" smooth="yes"/>
      <point x="434" y="635"/>
      <point x="455" y="604"/>
    </contour>
  </outline>
</glyph>
<glyph name="DotWide" format="2">
  <advance width="610"/>
  <outline>
    <contour>
      <point x="284" y="327" type="curve" smooth="yes"/>
      <point x="306" y="327"/>
      <point x="326" y="344"/>
      <point x="326" y="364" type="curve" smooth="yes"/>
      <point x="326" y="385"/>
      <point x="308" y="402"/>
      <point x="284" y="402" type="curve"/>
      <point x="261" y="402"/>
      <point x="243" y="385"/>
      <point x="243" y="364" type="curve"/>
      <point x="243" y="344"/>
      <point x="261" y="327"/>
    </contour>
  </outline>
</glyph>
<glyph name="DotWideUppercase" format="2">
  <advance width="600"/>
  <outline>
    <contour>
      <point x="284" y="327" type="curve" smooth="yes"/>
      <point x="308" y="327"/>
      <point x="328" y="344"/>
      <point x="328" y="365" type="curve" smooth="yes"/>
      <point x="328" y="387"/>
      <point x="308" y="404"/>
      <point x="284" y="404" type="curve"/>
      <point x="260" y="404"/>
      <point x="243" y="387"/>
      <point x="243" y="365" type="curve"/>
      <point x="243" y="344"/>
      <point x="260" y="327"/>
    </contour>
  </outline>
</glyph>
<glyph name="Iacute_J.locl" format="2">
  <advance width="610"/>
  <outline>
    <contour>
      <point x="121" y="700" type="line"/>
      <point x="121" y="0" type="line"/>
      <point x="206" y="0" type="line"/>
      <point x="206" y="700" type="line"/>
    </contour>
    <contour>
      <point x="309" y="65" type="curve"/>
      <point x="310" y="-10" type="line"/>
      <point x="427" y="-10"/>
      <point x="517" y="45"/>
      <point x="517" y="251" type="curve" smooth="yes"/>
      <point x="517" y="701" type="line"/>
      <point x="432" y="701" type="line"/>
      <point x="432" y="275" type="line" smooth="yes"/>
      <point x="432" y="107"/>
      <point x="398" y="65"/>
    </contour>
    <component base="acute" xOffset="-133" yOffset="270"/>
    <component base="acute" xOffset="173" yOffset="270"/>
  </outline>
</glyph>
<glyph name="L_periodcentered_L.loclCAT" format="2">
  <advance width="610"/>
  <outline>
    <contour>
      <point x="236" y="393" type="line"/>
      <point x="236" y="310" type="line"/>
      <point x="319" y="310" type="line"/>
      <point x="319" y="393" type="line"/>
    </contour>
    <contour>
      <point x="82" y="77" type="line"/>
      <point x="82" y="0" type="line"/>
      <point x="260" y="0" type="line"/>
      <point x="260" y="77" type="line"/>
    </contour>
    <contour>
      <point x="82" y="700" type="line"/>
      <point x="82" y="0" type="line"/>
      <point x="165" y="0" type="line"/>
      <point x="165" y="699" type="line"/>
    </contour>
    <contour>
      <point x="373" y="77" type="line"/>
      <point x="373" y="0" type="line"/>
      <point x="551" y="0" type="line"/>
      <point x="551" y="77" type="line"/>
    </contour>
    <contour>
      <point x="373" y="700" type="line"/>
      <point x="373" y="0" type="line"/>
      <point x="456" y="0" type="line"/>
      <point x="456" y="699" type="line"/>
    </contour>
  </outline>
</glyph>
<glyph name="a.ss01" format="2">
  <advance width="610"/>
  <anchor x="305" y="0" name="bottom"/>
  <anchor x="399" y="10" name="ogonek"/>
  <anchor x="295" y="580" name="top"/>
  <outline>
    <contour>
      <point x="391" y="45" type="move"/>
    </contour>
    <contour>
      <point x="390" y="45" type="move"/>
    </contour>
    <contour>
      <point x="390" y="45" type="move"/>
    </contour>
    <contour>
      <point x="528" y="0" type="line"/>
      <point x="528" y="470" type="line"/>
      <point x="445" y="470" type="line"/>
      <point x="448" y="321" type="line"/>
      <point x="476" y="168" type="line"/>
      <point x="438" y="60" type="line"/>
      <point x="475" y="0" type="line"/>
    </contour>
    <component base="b-bowl" xScale="-1" xOffset="610" identifier="FF5575CA"/>
  </outline>
</glyph>
<glyph name="b-stem" format="2">
  <advance width="610"/>
  <outline>
    <contour>
      <point x="82" y="0" type="line"/>
      <point x="135" y="0" type="line"/>
      <point x="172" y="89" type="line"/>
      <point x="134" y="250" type="line"/>
      <point x="162" y="374" type="line"/>
      <point x="165" y="700" type="line"/>
      <point x="82" y="700" type="line"/>
    </contour>
  </outline>
</glyph>
<glyph name="bbowl" format="2">
  <advance width="610"/>
  <outline>
    <contour>
      <point x="313" y="480" type="curve" smooth="yes"/>
      <point x="155" y="480"/>
      <point x="113" y="340"/>
      <point x="113" y="240" type="curve" smooth="yes"/>
      <point x="113" y="131"/>
      <point x="154" y="-10"/>
      <point x="313" y="-10" type="curve" smooth="yes"/>
      <point x="467" y="-10"/>
      <point x="528" y="123"/>
      <point x="528" y="235" type="curve" smooth="yes"/>
      <point x="528" y="346"/>
      <point x="467" y="480"/>
    </contour>
    <contour>
      <point x="306" y="405" type="curve" smooth="yes"/>
      <point x="394" y="405"/>
      <point x="445" y="339"/>
      <point x="445" y="235" type="curve" smooth="yes"/>
      <point x="445" y="131"/>
      <point x="394" y="65"/>
      <point x="306" y="65" type="curve" smooth="yes"/>
      <point x="218" y="65"/>
      <point x="154" y="130"/>
      <point x="154" y="240" type="curve" smooth="yes"/>
      <point x="154" y="340"/>
      <point x="218" y="405"/>
    </contour>
  </outline>
</glyph>
<glyph name="braceleft.case" format="2">
  <advance width="610"/>
  <outline>
    <contour>
      <point x="172" y="332" type="line"/>
      <point x="201" y="301"/>
      <point x="234" y="282"/>
      <point x="234" y="198" type="curve" smooth="yes"/>
      <point x="234" y="109" type="line" smooth="yes"/>
      <point x="234" y="-14"/>
      <point x="297" y="-87"/>
      <point x="381" y="-112" type="curve"/>
      <point x="410" y="-41" type="line"/>
      <point x="346" y="-17"/>
      <point x="319" y="23"/>
      <point x="319" y="124" type="curve" smooth="yes"/>
      <point x="319" y="198" type="line" smooth="yes"/>
      <point x="319" y="275"/>
      <point x="278" y="330"/>
      <point x="239" y="367" type="curve"/>
      <point x="239" y="329" type="line"/>
      <point x="278" y="366"/>
      <point x="319" y="421"/>
      <point x="319" y="498" type="curve" smooth="yes"/>
      <point x="319" y="572" type="line" smooth="yes"/>
      <point x="319" y="673"/>
      <point x="346" y="713"/>
      <point x="410" y="737" type="curve"/>
      <point x="381" y="808" type="line"/>
      <point x="297" y="783"/>
      <point x="234" y="710"/>
      <point x="234" y="587" type="curve" smooth="yes"/>
      <point x="234" y="498" type="line" smooth="yes"/>
      <point x="234" y="414"/>
      <point x="201" y="395"/>
      <point x="172" y="364" type="curve"/>
      <point x="171" y="348" type="line"/>
    </contour>
  </outline>
</glyph>
<glyph name="bullet.case" format="2">
  <advance width="610"/>
  <outline>
    <contour>
      <point x="306" y="225" type="curve" smooth="yes"/>
      <point x="374" y="225"/>
      <point x="430" y="281"/>
      <point x="430" y="349" type="curve" smooth="yes"/>
      <point x="430" y="417"/>
      <point x="374" y="473"/>
      <point x="306" y="473" type="curve" smooth="yes"/>
      <point x="237" y="473"/>
      <point x="181" y="417"/>
      <point x="181" y="349" type="curve" smooth="yes"/>
      <point x="181" y="281"/>
      <point x="237" y="225"/>
    </contour>
  </outline>
</glyph>
<glyph name="divide.case" format="2">
  <advance width="610"/>
  <outline>
    <contour>
      <point x="264" y="203" type="line"/>
      <point x="264" y="120" type="line"/>
      <point x="347" y="120" type="line"/>
      <point x="347" y="203" type="line"/>
    </contour>
    <contour>
      <point x="264" y="575" type="line"/>
      <point x="264" y="492" type="line"/>
      <point x="347" y="492" type="line"/>
      <point x="347" y="575" type="line"/>
    </contour>
    <contour>
      <point x="530" y="386" type="line"/>
      <point x="80" y="386" type="line"/>
      <point x="80" y="309" type="line"/>
      <point x="530" y="309" type="line"/>
    </contour>
  </outline>
</glyph>
<glyph name="ellecaroncomb" format="2">
  <advance width="610"/>
  <anchor x="307" y="500" name="ellecaron"/>
  <outline>
    <contour>
      <point x="439" y="799" type="line"/>
      <point x="346" y="800" type="line"/>
      <point x="346" y="567" type="line"/>
      <point x="429" y="567" type="line"/>
    </contour>
  </outline>
</glyph>
<glyph name="emptyset.case" format="2">
  <advance width="610"/>
  <outline>
    <contour>
      <point x="306" y="82" type="curve" smooth="yes"/>
      <point x="451" y="82"/>
      <point x="570" y="201"/>
      <point x="570" y="346" type="curve" smooth="yes"/>
      <point x="570" y="491"/>
      <point x="451" y="610"/>
      <point x="306" y="610" type="curve" smooth="yes"/>
      <point x="161" y="610"/>
      <point x="42" y="491"/>
      <point x="42" y="346" type="curve" smooth="yes"/>
      <point x="42" y="201"/>
      <point x="161" y="82"/>
    </contour>
    <contour>
      <point x="306" y="159" type="curve" smooth="yes"/>
      <point x="210" y="159"/>
      <point x="127" y="240"/>
      <point x="127" y="346" type="curve" smooth="yes"/>
      <point x="127" y="452"/>
      <point x="210" y="533"/>
      <point x="306" y="533" type="curve" smooth="yes"/>
      <point x="402" y="533"/>
      <point x="485" y="452"/>
      <point x="485" y="346" type="curve" smooth="yes"/>
      <point x="485" y="240"/>
      <point x="402" y="159"/>
    </contour>
    <contour>
      <point x="492" y="594" type="line"/>
      <point x="41" y="131" type="line"/>
      <point x="120" y="99" type="line"/>
      <point x="571" y="562" type="line"/>
    </contour>
  </outline>
</glyph>
<glyph name="f_i" format="2">
  <advance width="610"/>
  <outline>
    <contour>
      <point x="77" y="470" type="line"/>
      <point x="77" y="395" type="line" smooth="yes"/>
      <point x="456" y="395" type="line" smooth="yes"/>
      <point x="456" y="470" type="line"/>
    </contour>
    <contour>
      <point x="429" y="560" type="curve"/>
      <point x="502" y="591" type="line"/>
      <point x="470" y="678"/>
      <point x="405" y="710"/>
      <point x="331" y="710" type="curve" smooth="yes"/>
      <point x="227" y="710"/>
      <point x="162" y="651"/>
      <point x="162" y="544" type="curve" smooth="yes"/>
      <point x="162" y="0" type="line"/>
      <point x="245" y="0" type="line"/>
      <point x="245" y="540" type="line" smooth="yes"/>
      <point x="245" y="600"/>
      <point x="271" y="635"/>
      <point x="335" y="635" type="curve" smooth="yes"/>
      <point x="382" y="635"/>
      <point x="406" y="609"/>
    </contour>
    <contour>
      <point x="416" y="470" type="line" smooth="yes"/>
      <point x="416" y="0" type="line"/>
      <point x="499" y="0" type="line"/>
      <point x="499" y="470" type="line" smooth="yes"/>
    </contour>
  </outline>
</glyph>
<glyph name="f_l" format="2">
  <advance width="610"/>
  <outline>
    <contour>
      <point x="81" y="470" type="line"/>
      <point x="81" y="395" type="line" smooth="yes"/>
      <point x="362" y="395" type="line" smooth="yes"/>
      <point x="362" y="470" type="line"/>
    </contour>
    <contour>
      <point x="324" y="625" type="curve"/>
      <point x="314" y="700" type="line"/>
      <point x="210" y="700"/>
      <point x="150" y="651"/>
      <point x="150" y="544" type="curve" smooth="yes"/>
      <point x="150" y="0" type="line"/>
      <point x="233" y="0" type="line"/>
      <point x="233" y="536" type="line" smooth="yes"/>
      <point x="233" y="596"/>
      <point x="252" y="625"/>
    </contour>
    <contour>
      <point x="417" y="700" type="line"/>
      <point x="418" y="0" type="line"/>
      <point x="500" y="0" type="line"/>
      <point x="499" y="700" type="line"/>
    </contour>
    <contour>
      <point x="314" y="700" type="line"/>
      <point x="324" y="625" type="line"/>
      <point x="500" y="625" type="line"/>
      <point x="500" y="700" type="line"/>
    </contour>
  </outline>
</glyph>
<glyph name="four.dnom" format="2">
  <advance width="610"/>
  <outline>
    <contour>
      <point x="336" y="0" type="line"/>
      <point x="394" y="0" type="line"/>
      <point x="394" y="178" type="line"/>
      <point x="336" y="178" type="line"/>
    </contour>
    <contour>
      <point x="232" y="73" type="line"/>
      <point x="365" y="299" type="line"/>
      <point x="301" y="299" type="line"/>
      <point x="187" y="100" type="line"/>
      <point x="187" y="67" type="line"/>
      <point x="423" y="67" type="line"/>
      <point x="423" y="119" type="line"/>
      <point x="211" y="114" type="line"/>
    </contour>
  </outline>
</glyph>
<glyph name="infinity.case" format="2">
  <advance width="610"/>
  <outline>
    <contour>
      <point x="435" y="548" type="curve" smooth="yes"/>
      <point x="371" y="548"/>
      <point x="334" y="511"/>
      <point x="301" y="427" type="curve"/>
      <point x="309" y="427" type="line"/>
      <point x="275" y="511"/>
      <point x="238" y="548"/>
      <point x="174" y="548" type="curve" smooth="yes"/>
      <point x="72" y="548"/>
      <point x="21" y="472"/>
      <point x="21" y="349" type="curve" smooth="yes"/>
      <point x="21" y="226"/>
      <point x="72" y="150"/>
      <point x="174" y="150" type="curve" smooth="yes"/>
      <point x="238" y="150"/>
      <point x="275" y="187"/>
      <point x="309" y="271" type="curve"/>
      <point x="301" y="271" type="line"/>
      <point x="334" y="187"/>
      <point x="371" y="150"/>
      <point x="435" y="150" type="curve" smooth="yes"/>
      <point x="537" y="150"/>
      <point x="588" y="226"/>
      <point x="588" y="349" type="curve" smooth="yes"/>
      <point x="588" y="472"/>
      <point x="537" y="548"/>
    </contour>
    <contour>
      <point x="266" y="331" type="curve"/>
      <point x="344" y="331" type="line"/>
      <point x="344" y="396"/>
      <point x="378" y="471"/>
      <point x="437" y="471" type="curve" smooth="yes"/>
      <point x="484" y="471"/>
      <point x="503" y="425"/>
      <point x="503" y="349" type="curve" smooth="yes"/>
      <point x="503" y="275"/>
      <point x="485" y="227"/>
      <point x="437" y="227" type="curve" smooth="yes"/>
      <point x="378" y="227"/>
      <point x="344" y="302"/>
      <point x="344" y="367" type="curve"/>
      <point x="266" y="367" type="line"/>
      <point x="266" y="302"/>
      <point x="231" y="227"/>
      <point x="172" y="227" type="curve" smooth="yes"/>
      <point x="125" y="227"/>
      <point x="106" y="273"/>
      <point x="106" y="349" type="curve" smooth="yes"/>
      <point x="106" y="423"/>
      <point x="124" y="471"/>
      <point x="172" y="471" type="curve" smooth="yes"/>
      <point x="231" y="471"/>
      <point x="266" y="396"/>
    </contour>
  </outline>
</glyph>
<glyph name="l_periodcentered_l.loclCAT" format="2">
  <advance width="610"/>
  <outline>
    <contour>
      <point x="267" y="393" type="line"/>
      <point x="267" y="310" type="line"/>
      <point x="350" y="310" type="line"/>
      <point x="350" y="393" type="line"/>
    </contour>
    <contour>
      <point x="104" y="700" type="line"/>
      <point x="104" y="0" type="line"/>
      <point x="187" y="0" type="line"/>
      <point x="187" y="699" type="line"/>
    </contour>
    <contour>
      <point x="439" y="700" type="line"/>
      <point x="439" y="0" type="line"/>
      <point x="522" y="0" type="line"/>
      <point x="522" y="699" type="line"/>
    </contour>
    <contour>
      <point x="360" y="700" type="line"/>
      <point x="360" y="625" type="line"/>
      <point x="522" y="625" type="line"/>
      <point x="522" y="700" type="line"/>
    </contour>
    <contour>
      <point x="25" y="700" type="line"/>
      <point x="25" y="625" type="line"/>
      <point x="187" y="625" type="line"/>
      <point x="187" y="700" type="line"/>
    </contour>
  </outline>
</glyph>
<glyph name="less.case" format="2">
  <advance width="610"/>
  <outline>
    <contour>
      <point x="471" y="58" type="line"/>
      <point x="511" y="124" type="line"/>
      <point x="155" y="298" type="line"/>
      <point x="155" y="258" type="line"/>
      <point x="511" y="432" type="line"/>
      <point x="471" y="498" type="line"/>
      <point x="109" y="315" type="line"/>
      <point x="109" y="241" type="line"/>
    </contour>
  </outline>
</glyph>
<glyph name="lessequal.case" format="2">
  <advance width="610"/>
  <outline>
    <contour>
      <point x="85" y="135" type="line"/>
      <point x="85" y="58" type="line"/>
      <point x="534" y="58" type="line"/>
      <point x="535" y="135" type="line"/>
    </contour>
    <contour>
      <point x="472" y="196" type="line"/>
      <point x="514" y="264" type="line"/>
      <point x="156" y="406" type="line"/>
      <point x="156" y="366" type="line"/>
      <point x="514" y="508" type="line"/>
      <point x="472" y="576" type="line"/>
      <point x="110" y="423" type="line"/>
      <point x="110" y="349" type="line"/>
    </contour>
  </outline>
</glyph>
<glyph name="logicalnot.case" format="2">
  <advance width="610"/>
  <outline>
    <contour>
      <point x="79" y="496" type="line"/>
      <point x="79" y="419" type="line"/>
      <point x="523" y="419" type="line"/>
      <point x="523" y="496" type="line"/>
    </contour>
    <contour>
      <point x="525" y="496" type="line"/>
      <point x="440" y="496" type="line"/>
      <point x="440" y="163" type="line"/>
      <point x="525" y="163" type="line"/>
    </contour>
  </outline>
</glyph>
<glyph name="nd.ord" format="2">
  <advance width="610"/>
  <anchor x="134.52" y="397" name="bottom"/>
  <anchor x="60.6" y="507" name="center"/>
  <anchor x="141.56" y="652.2" name="top"/>
  <anchor x="507" y="617" name="topright"/>
  <outline>
    <contour>
      <point x="34" y="604" type="line"/>
      <point x="34" y="397" type="line"/>
      <point x="92" y="397" type="line"/>
      <point x="91" y="545" type="line"/>
      <point x="85" y="569" type="line"/>
      <point x="64" y="604" type="line"/>
    </contour>
    <contour>
      <point x="174" y="397" type="line"/>
      <point x="232" y="397" type="line"/>
      <point x="233" y="512" type="line" smooth="yes"/>
      <point x="233" y="569"/>
      <point x="199" y="608"/>
      <point x="144" y="608" type="curve" smooth="yes"/>
      <point x="83" y="608"/>
      <point x="62" y="557"/>
      <point x="62" y="469" type="curve"/>
      <point x="91" y="469" type="line"/>
      <point x="89" y="528"/>
      <point x="103" y="556"/>
      <point x="136" y="556" type="curve" smooth="yes"/>
      <point x="174" y="556"/>
      <point x="174" y="518"/>
      <point x="174" y="502" type="curve" smooth="yes"/>
    </contour>
    <contour>
      <point x="373" y="608" type="curve" smooth="yes"/>
      <point x="310" y="608"/>
      <point x="268" y="564"/>
      <point x="268" y="500" type="curve" smooth="yes"/>
      <point x="268" y="436"/>
      <point x="310" y="393"/>
      <point x="373" y="393" type="curve" smooth="yes"/>
      <point x="436" y="393"/>
      <point x="462" y="434"/>
      <point x="462" y="503" type="curve" smooth="yes"/>
      <point x="462" y="568"/>
      <point x="434" y="608"/>
    </contour>
    <contour>
      <point x="376" y="556" type="curve" smooth="yes"/>
      <point x="410" y="556"/>
      <point x="432" y="537"/>
      <point x="432" y="503" type="curve" smooth="yes"/>
      <point x="432" y="465"/>
      <point x="411" y="445"/>
      <point x="376" y="445" type="curve" smooth="yes"/>
      <point x="344" y="445"/>
      <point x="326" y="464"/>
      <point x="326" y="500" type="curve" smooth="yes"/>
      <point x="326" y="537"/>
      <point x="344" y="556"/>
    </contour>
    <contour>
      <point x="486" y="397" type="line"/>
      <point x="486" y="705" type="line"/>
      <point x="427" y="705" type="line"/>
      <point x="429" y="561" type="line"/>
      <point x="441" y="507" type="line"/>
      <point x="433" y="446" type="line"/>
      <point x="455" y="397" type="line"/>
    </contour>
    <contour>
      <point x="32" y="338" type="line"/>
      <point x="32" y="300" type="line"/>
      <point x="474" y="300" type="line"/>
      <point x="474" y="338" type="line"/>
    </contour>
  </outline>
</glyph>
<glyph name="nine.dnom" format="2">
  <advance width="610"/>
  <outline>
    <contour>
      <point x="245" y="71" type="curve"/>
      <point x="197" y="43" type="line"/>
      <point x="217" y="10"/>
      <point x="254" y="-10"/>
      <point x="296" y="-10" type="curve" smooth="yes"/>
      <point x="375" y="-10"/>
      <point x="423" y="53"/>
      <point x="423" y="156" type="curve" smooth="yes"/>
      <point x="423" y="253"/>
      <point x="379" y="309"/>
      <point x="303" y="309" type="curve" smooth="yes"/>
      <point x="235" y="309"/>
      <point x="189" y="262"/>
      <point x="189" y="199" type="curve" smooth="yes"/>
      <point x="189" y="138"/>
      <point x="234" y="101"/>
      <point x="298" y="101" type="curve" smooth="yes"/>
      <point x="367" y="101"/>
      <point x="382" y="158"/>
      <point x="369" y="235" type="curve"/>
      <point x="349" y="238" type="line"/>
      <point x="361" y="188"/>
      <point x="343" y="152"/>
      <point x="299" y="152" type="curve" smooth="yes"/>
      <point x="265" y="152"/>
      <point x="247" y="171"/>
      <point x="247" y="200" type="curve" smooth="yes"/>
      <point x="247" y="234"/>
      <point x="268" y="257"/>
      <point x="302" y="257" type="curve" smooth="yes"/>
      <point x="344" y="257"/>
      <point x="365" y="223"/>
      <point x="365" y="158" type="curve" smooth="yes"/>
      <point x="365" y="84"/>
      <point x="341" y="42"/>
      <point x="296" y="42" type="curve" smooth="yes"/>
      <point x="272" y="42"/>
      <point x="255" y="52"/>
    </contour>
  </outline>
</glyph>
<glyph name="notequal.case" format="2">
  <advance width="610"/>
  <outline>
    <contour>
      <point x="373" y="601" type="line"/>
      <point x="144" y="84" type="line"/>
      <point x="235" y="83" type="line"/>
      <point x="465" y="601" type="line"/>
    </contour>
    <component base="equal" yOffset="-8"/>
  </outline>
</glyph>
<glyph name="one.dnom" format="2">
  <advance width="610"/>
  <outline>
    <contour>
      <point x="280" y="299" type="line"/>
      <point x="276" y="251" type="line"/>
      <point x="276" y="250" type="line"/>
      <point x="276" y="0" type="line"/>
      <point x="334" y="0" type="line"/>
      <point x="334" y="299" type="line"/>
    </contour>
    <contour>
      <point x="198" y="52" type="line"/>
      <point x="198" y="0" type="line"/>
      <point x="412" y="0" type="line"/>
      <point x="412" y="52" type="line"/>
    </contour>
    <contour>
      <point x="211" y="252" type="curve"/>
      <point x="211" y="199" type="line"/>
      <point x="277" y="199"/>
      <point x="305" y="235"/>
      <point x="305" y="299" type="curve"/>
      <point x="280" y="299" type="line"/>
      <point x="280" y="268"/>
      <point x="255" y="252"/>
    </contour>
  </outline>
</glyph>
<glyph name="plusminus.case" format="2">
  <advance width="610"/>
  <outline>
    <contour>
      <point x="525" y="175" type="line"/>
      <point x="75" y="175" type="line"/>
      <point x="76" y="98" type="line"/>
      <point x="525" y="98" type="line"/>
    </contour>
    <contour>
      <point x="525" y="435" type="line"/>
      <point x="75" y="435" type="line"/>
      <point x="76" y="358" type="line"/>
      <point x="525" y="358" type="line"/>
    </contour>
    <contour>
      <point x="343" y="232" type="line"/>
      <point x="343" y="572" type="line"/>
      <point x="258" y="571" type="line"/>
      <point x="258" y="232" type="line"/>
    </contour>
  </outline>
</glyph>
<glyph name="seven.dnom" format="2">
  <advance width="610"/>
  <outline>
    <contour>
      <point x="395" y="251" type="line"/>
      <point x="346" y="260" type="line"/>
      <point x="286" y="165"/>
      <point x="253" y="91"/>
      <point x="244" y="0" type="curve"/>
      <point x="301" y="0" type="line"/>
      <point x="310" y="100"/>
      <point x="345" y="171"/>
      <point x="413" y="266" type="curve"/>
      <point x="413" y="299" type="line"/>
      <point x="196" y="299" type="line"/>
      <point x="196" y="245" type="line"/>
    </contour>
  </outline>
</glyph>
<glyph name="six.dnom" format="2">
  <advance width="610"/>
  <outline>
    <contour>
      <point x="361" y="227" type="curve"/>
      <point x="410" y="256" type="line"/>
      <point x="390" y="290"/>
      <point x="356" y="309"/>
      <point x="315" y="309" type="curve" smooth="yes"/>
      <point x="237" y="309"/>
      <point x="186" y="239"/>
      <point x="186" y="142" type="curve" smooth="yes"/>
      <point x="186" y="52"/>
      <point x="233" y="-10"/>
      <point x="308" y="-10" type="curve" smooth="yes"/>
      <point x="375" y="-10"/>
      <point x="421" y="37"/>
      <point x="421" y="97" type="curve"/>
      <point x="421" y="151"/>
      <point x="380" y="199"/>
      <point x="318" y="199" type="curve" smooth="yes"/>
      <point x="248" y="199"/>
      <point x="227" y="149"/>
      <point x="240" y="69" type="curve"/>
      <point x="259" y="69" type="line"/>
      <point x="252" y="116"/>
      <point x="270" y="147"/>
      <point x="313" y="147" type="curve" smooth="yes"/>
      <point x="350" y="147"/>
      <point x="363" y="120"/>
      <point x="363" y="95" type="curve" smooth="yes"/>
      <point x="363" y="68"/>
      <point x="347" y="42"/>
      <point x="311" y="42" type="curve" smooth="yes"/>
      <point x="273" y="42"/>
      <point x="244" y="73"/>
      <point x="244" y="139" type="curve"/>
      <point x="244" y="182"/>
      <point x="254" y="257"/>
      <point x="315" y="257" type="curve" smooth="yes"/>
      <point x="337" y="257"/>
      <point x="351" y="246"/>
    </contour>
  </outline>
</glyph>
<glyph name="st.ord" format="2">
  <advance width="610"/>
  <outline>
    <contour>
      <point x="428" y="489" type="line"/>
      <point x="420" y="462"/>
      <point x="411" y="445"/>
      <point x="388" y="445" type="curve" smooth="yes"/>
      <point x="358" y="445"/>
      <point x="358" y="474"/>
      <point x="358" y="489" type="curve" smooth="yes"/>
      <point x="358" y="678" type="line"/>
      <point x="300" y="678" type="line"/>
      <point x="300" y="483" type="line" smooth="yes"/>
      <point x="300" y="427"/>
      <point x="334" y="393"/>
      <point x="389" y="393" type="curve" smooth="yes"/>
      <point x="434" y="393"/>
      <point x="464" y="416"/>
      <point x="478" y="464" type="curve"/>
    </contour>
    <contour>
      <point x="255" y="552" type="line"/>
      <point x="454" y="552" type="line"/>
      <point x="454" y="604" type="line"/>
      <point x="255" y="604" type="line"/>
    </contour>
    <contour>
      <point x="79" y="470" type="curve"/>
      <point x="31" y="442" type="line"/>
      <point x="48" y="410"/>
      <point x="80" y="393"/>
      <point x="129" y="393" type="curve" smooth="yes"/>
      <point x="187" y="393"/>
      <point x="223" y="416"/>
      <point x="223" y="459" type="curve" smooth="yes"/>
      <point x="223" y="512"/>
      <point x="168" y="522"/>
      <point x="130" y="527" type="curve" smooth="yes"/>
      <point x="116" y="529"/>
      <point x="97" y="531"/>
      <point x="97" y="543" type="curve" smooth="yes"/>
      <point x="97" y="552"/>
      <point x="110" y="556"/>
      <point x="128" y="556" type="curve" smooth="yes"/>
      <point x="144" y="556"/>
      <point x="161" y="553"/>
      <point x="171" y="532" type="curve"/>
      <point x="220" y="560" type="line"/>
      <point x="203" y="594"/>
      <point x="169" y="608"/>
      <point x="129" y="608" type="curve" smooth="yes"/>
      <point x="73" y="608"/>
      <point x="39" y="581"/>
      <point x="39" y="541" type="curve" smooth="yes"/>
      <point x="39" y="491"/>
      <point x="91" y="482"/>
      <point x="125" y="477" type="curve" smooth="yes"/>
      <point x="148" y="474"/>
      <point x="165" y="471"/>
      <point x="165" y="458" type="curve" smooth="yes"/>
      <point x="165" y="448"/>
      <point x="155" y="445"/>
      <point x="134" y="445" type="curve" smooth="yes"/>
      <point x="104" y="445"/>
      <point x="87" y="451"/>
    </contour>
    <contour>
      <point x="32" y="338" type="line"/>
      <point x="32" y="300" type="line"/>
      <point x="474" y="300" type="line"/>
      <point x="474" y="338" type="line"/>
    </contour>
  </outline>
</glyph>
<glyph name="three.dnom" format="2">
  <advance width="610"/>
  <outline>
    <contour>
      <point x="313" y="164" type="line"/>
      <point x="403" y="274" type="line"/>
      <point x="403" y="309" type="line"/>
      <point x="201" y="309" type="line"/>
      <point x="201" y="257" type="line"/>
      <point x="376" y="261" type="line"/>
      <point x="346" y="283" type="line"/>
      <point x="264" y="186" type="line"/>
      <point x="264" y="153" type="line"/>
      <point x="320" y="153"/>
      <point x="356" y="136"/>
      <point x="356" y="97" type="curve" smooth="yes"/>
      <point x="356" y="66"/>
      <point x="334" y="42"/>
      <point x="301" y="42" type="curve" smooth="yes"/>
      <point x="270" y="42"/>
      <point x="241" y="64"/>
      <point x="225" y="97" type="curve"/>
      <point x="181" y="61" type="line"/>
      <point x="204" y="18"/>
      <point x="251" y="-10"/>
      <point x="301" y="-10" type="curve" smooth="yes"/>
      <point x="366" y="-10"/>
      <point x="413" y="35"/>
      <point x="413" y="97" type="curve" smooth="yes"/>
      <point x="413" y="157"/>
      <point x="363" y="198"/>
      <point x="303" y="198" type="curve"/>
    </contour>
  </outline>
</glyph>
